<?xml version="1.0" encoding="utf-8"?>
<!-- Generator: Adobe Illustrator 24.1.2, SVG Export Plug-In . SVG Version: 6.00 Build 0)  -->
<svg version="1.1" id="Layer_1" xmlns="http://www.w3.org/2000/svg" xmlns:xlink="http://www.w3.org/1999/xlink" x="0px" y="0px"
	 viewBox="0 0 285 87" style="enable-background:new 0 0 285 87;" xml:space="preserve">
<g>
	<path d="M27.6,19.4c-0.8-1.2-2-2.3-3.4-3.2c-1.5-0.9-3.1-1.3-5-1.3c-2,0-3.7,0.3-5.3,0.9c-1.6,0.7-2.9,1.6-4,2.8
		c-1.1,1.2-2,2.6-2.5,4.3c-0.6,1.7-0.9,3.5-0.9,5.4s0.3,3.7,0.9,5.4c0.6,1.7,1.4,3.1,2.5,4.3s2.4,2.1,4,2.8c1.6,0.7,3.3,1,5.3,0.9
		c1.9,0,3.5-0.4,5-1.3c1.5-0.9,2.6-1.9,3.4-3.2l3.9,3c-1.7,2-3.6,3.4-5.7,4.4c-2.1,0.9-4.3,1.4-6.6,1.5c-2.7,0-5.2-0.4-7.4-1.3
		s-4.1-2.1-5.7-3.7c-1.6-1.6-2.8-3.5-3.6-5.7s-1.2-4.5-1.2-7.1s0.4-4.9,1.2-7.1s2-4.1,3.6-5.7c1.6-1.6,3.5-2.8,5.7-3.7
		s4.7-1.3,7.4-1.3c2.3,0,4.5,0.5,6.6,1.5c2.1,0.9,4,2.4,5.7,4.4L27.6,19.4z"/>
	<path d="M46.5,41.7c0,1-0.4,1.9-1.1,2.7s-1.7,1.2-2.8,1.2s-2.1-0.4-2.8-1.2c-0.7-0.8-1.1-1.7-1.1-2.7c0-1,0.4-1.9,1.1-2.7
		c0.7-0.8,1.7-1.2,2.8-1.2c1.2,0,2.1,0.4,2.8,1.2C46.1,39.8,46.5,40.7,46.5,41.7z"/>
	<path d="M58.3,22c0-1.5,0-3-0.1-4.5s-0.1-3.5-0.2-6h4.7v6.3h0.1c0.3-0.9,0.8-1.8,1.4-2.6s1.4-1.6,2.3-2.3s1.9-1.2,3.1-1.6
		c1.2-0.4,2.5-0.6,4-0.6c1.3,0,2.5,0.1,3.5,0.4l-0.9,4.7c-0.6-0.2-1.5-0.4-2.7-0.4c-1.8,0-3.4,0.4-4.7,1c-1.3,0.7-2.4,1.6-3.2,2.7
		c-0.9,1.1-1.5,2.2-1.9,3.5c-0.4,1.2-0.6,2.5-0.6,3.6v19h-4.8L58.3,22L58.3,22z"/>
	<path d="M83.8,41.7c0,1-0.4,1.9-1.1,2.7s-1.7,1.2-2.8,1.2c-1.2,0-2.1-0.4-2.8-1.2c-0.7-0.8-1.1-1.7-1.1-2.7c0-1,0.4-1.9,1.1-2.7
		c0.7-0.8,1.7-1.2,2.8-1.2c1.2,0,2.1,0.4,2.8,1.2C83.5,39.8,83.8,40.7,83.8,41.7z"/>
	<path d="M98.5,29.6c0.1,1.7,0.6,3.3,1.2,4.8c0.7,1.5,1.6,2.8,2.7,3.9c1.1,1.1,2.4,1.9,3.8,2.6s3,0.9,4.7,0.9c2.6,0,4.7-0.6,6.6-1.8
		c1.9-1.2,3.2-2.5,4.2-4.1l3.7,3c-2,2.5-4.2,4.4-6.7,5.5c-2.4,1.1-5,1.7-7.8,1.7c-2.5,0-4.8-0.4-6.9-1.3c-2.1-0.9-4-2.1-5.5-3.7
		c-1.5-1.6-2.8-3.5-3.6-5.6s-1.3-4.5-1.3-7.1c0-2.5,0.4-4.9,1.3-7.1c0.9-2.2,2.1-4,3.6-5.6c1.5-1.6,3.3-2.8,5.4-3.7
		c2.1-0.9,4.3-1.3,6.7-1.3c2.6,0,4.8,0.5,6.9,1.4c2,0.9,3.7,2.1,5.1,3.6s2.4,3.3,3.1,5.3c0.7,2,1.1,4.2,1.1,6.5v2.2L98.5,29.6
		L98.5,29.6z M121.4,25.7c0-3.2-1-5.8-2.9-7.8c-1.9-2-4.6-3-8.1-3c-1.5,0-3,0.3-4.5,0.9c-1.4,0.6-2.7,1.4-3.8,2.4
		c-1.1,1-1.9,2.2-2.6,3.5c-0.7,1.3-1,2.6-1,4H121.4z"/>
	<path d="M143.9,41.7c0,1-0.4,1.9-1.1,2.7s-1.7,1.2-2.8,1.2s-2.1-0.4-2.8-1.2c-0.7-0.8-1.1-1.7-1.1-2.7c0-1,0.4-1.9,1.1-2.7
		s1.7-1.2,2.8-1.2s2.1,0.4,2.8,1.2C143.6,39.8,143.9,40.7,143.9,41.7z"/>
	<path d="M205.8,41.7c0,1-0.4,1.9-1.1,2.7s-1.7,1.2-2.8,1.2s-2.1-0.4-2.8-1.2c-0.7-0.8-1.1-1.7-1.1-2.7c0-1,0.4-1.9,1.1-2.7
		s1.7-1.2,2.8-1.2s2.1,0.4,2.8,1.2C205.5,39.8,205.8,40.7,205.8,41.7z"/>
	<path d="M234.6,15.8h-9.7v19.9c0,1.2,0.1,2.3,0.4,3.1s0.6,1.4,1,1.8c0.4,0.4,0.9,0.7,1.6,0.9c0.6,0.2,1.3,0.2,2,0.2
		c0.8,0,1.7-0.1,2.5-0.4s1.7-0.5,2.4-0.9l0.2,4.4c-1.8,0.8-3.9,1.2-6.4,1.2c-0.9,0-1.9-0.1-2.9-0.4s-1.9-0.7-2.7-1.4
		c-0.8-0.7-1.5-1.6-2-2.7s-0.8-2.7-0.8-4.5V15.8H213v-4.3h7.1V1.9h4.8v9.5h9.7L234.6,15.8L234.6,15.8z"/>
	<path d="M255.2,29.6c0.1,1.7,0.5,3.3,1.2,4.8c0.7,1.5,1.6,2.8,2.7,3.9c1.1,1.1,2.4,1.9,3.8,2.6s3,0.9,4.7,0.9
		c2.5,0,4.7-0.6,6.6-1.8c1.9-1.2,3.2-2.5,4.2-4.1l3.7,3c-2,2.5-4.2,4.4-6.7,5.5c-2.4,1.1-5,1.7-7.8,1.7c-2.5,0-4.8-0.4-7-1.3
		c-2.1-0.9-4-2.1-5.5-3.7c-1.5-1.6-2.8-3.5-3.6-5.6s-1.3-4.5-1.3-7.1c0-2.5,0.4-4.9,1.3-7.1c0.9-2.2,2.1-4,3.6-5.6
		c1.5-1.6,3.3-2.8,5.4-3.7c2.1-0.9,4.3-1.3,6.7-1.3c2.5,0,4.8,0.5,6.9,1.4c2,0.9,3.7,2.1,5.1,3.6s2.4,3.3,3.1,5.3
		c0.7,2,1.1,4.2,1.1,6.5v2.2L255.2,29.6L255.2,29.6z M278.1,25.7c0-3.2-1-5.8-2.9-7.8s-4.6-3-8.1-3c-1.5,0-3,0.3-4.5,0.9
		c-1.4,0.6-2.7,1.4-3.8,2.4c-1.1,1-2,2.2-2.6,3.5c-0.7,1.3-1,2.6-1,4H278.1z"/>
	<path d="M3,76.7h10v2H0.8V57.3h2.2L3,76.7L3,76.7z"/>
	<path d="M24.7,70v-0.4c0-2.4-1.2-3.7-3.6-3.7c-1.7,0-3.1,0.6-4.3,1.7l-1.2-1.4c1.3-1.4,3.3-2.1,6-2.1c0.7,0,1.3,0.1,2,0.3
		c0.6,0.2,1.2,0.5,1.7,0.9c0.5,0.4,0.8,0.9,1.1,1.6c0.3,0.6,0.4,1.4,0.4,2.2v6.3c0,0.6,0,1.1,0.1,1.7c0,0.6,0.1,1.1,0.2,1.5H25
		c-0.1-0.3-0.1-0.7-0.1-1.1s0-0.8,0-1.2h-0.1c-0.6,0.9-1.3,1.6-2.1,2.1c-0.8,0.4-1.8,0.6-2.9,0.6c-0.6,0-1.2-0.1-1.8-0.3
		c-0.6-0.2-1.1-0.4-1.6-0.8c-0.5-0.3-0.8-0.8-1.1-1.3s-0.4-1.1-0.4-1.8c0-1.2,0.3-2.1,0.9-2.7s1.3-1.2,2.2-1.5s1.9-0.5,2.9-0.6
		s2-0.1,2.8-0.1C23.7,70,24.7,70,24.7,70z M23.7,71.7c-0.5,0-1.1,0-1.9,0.1c-0.8,0.1-1.5,0.2-2.2,0.4c-0.7,0.2-1.3,0.5-1.8,0.9
		c-0.5,0.4-0.7,1-0.7,1.7c0,0.5,0.1,0.9,0.3,1.2c0.2,0.3,0.5,0.6,0.8,0.8s0.7,0.4,1.1,0.5c0.4,0.1,0.8,0.1,1.2,0.1
		c0.7,0,1.4-0.1,1.9-0.4s1-0.6,1.3-1c0.4-0.4,0.6-0.9,0.8-1.5s0.3-1.2,0.3-1.8v-1L23.7,71.7L23.7,71.7z"/>
	<path d="M31.8,55.8h2v11.1h0.1c0.3-0.5,0.7-0.9,1.2-1.2c0.4-0.3,0.9-0.6,1.4-0.8s1-0.4,1.5-0.5c0.5-0.1,1-0.2,1.5-0.2
		c1.1,0,2.1,0.2,3,0.6c0.9,0.4,1.7,0.9,2.4,1.6c0.7,0.7,1.2,1.5,1.6,2.4c0.4,0.9,0.6,1.9,0.6,3s-0.2,2.1-0.6,3
		c-0.4,0.9-0.9,1.7-1.6,2.4c-0.7,0.7-1.5,1.2-2.4,1.6c-0.9,0.4-1.9,0.6-3,0.6c-0.5,0-1-0.1-1.5-0.2c-0.5-0.1-1-0.3-1.5-0.5
		c-0.5-0.2-1-0.5-1.4-0.8s-0.8-0.8-1.2-1.2h-0.1v2.4h-2V55.8z M44.8,71.6c0-0.8-0.1-1.5-0.4-2.2s-0.6-1.3-1.1-1.8
		c-0.5-0.5-1-0.9-1.7-1.2C41,66.1,40.2,66,39.4,66s-1.6,0.2-2.3,0.4s-1.3,0.7-1.8,1.2c-0.5,0.5-0.9,1.1-1.2,1.8s-0.4,1.4-0.4,2.2
		s0.1,1.5,0.4,2.2s0.7,1.3,1.2,1.8c0.5,0.5,1.1,0.9,1.8,1.2c0.7,0.3,1.5,0.4,2.3,0.4s1.6-0.2,2.2-0.4s1.2-0.7,1.7-1.2
		c0.5-0.5,0.8-1.1,1.1-1.8S44.8,72.4,44.8,71.6z"/>
	<path d="M65.1,71.6c0,1.1-0.2,2.1-0.6,3c-0.4,0.9-0.9,1.7-1.6,2.4c-0.7,0.7-1.5,1.2-2.4,1.6c-0.9,0.4-1.9,0.6-3.1,0.6
		c-1.1,0-2.1-0.2-3-0.6c-0.9-0.4-1.7-0.9-2.4-1.6c-0.7-0.7-1.2-1.5-1.6-2.4c-0.4-0.9-0.6-1.9-0.6-3s0.2-2.1,0.6-3s0.9-1.7,1.6-2.4
		c0.7-0.7,1.5-1.2,2.4-1.6c0.9-0.4,1.9-0.6,3-0.6c1.1,0,2.1,0.2,3.1,0.6c0.9,0.4,1.7,0.9,2.4,1.6s1.2,1.5,1.6,2.4
		C64.9,69.6,65.1,70.6,65.1,71.6z M62.9,71.6c0-0.8-0.1-1.5-0.4-2.2s-0.6-1.3-1.1-1.8c-0.5-0.5-1-0.9-1.7-1.2
		c-0.7-0.3-1.4-0.4-2.2-0.4s-1.6,0.2-2.2,0.4s-1.2,0.7-1.7,1.2c-0.5,0.5-0.8,1.1-1.1,1.8s-0.4,1.4-0.4,2.2s0.1,1.5,0.4,2.2
		s0.6,1.3,1.1,1.8c0.4,0.5,1,0.9,1.7,1.2c0.7,0.3,1.4,0.4,2.2,0.4s1.6-0.2,2.2-0.4s1.2-0.7,1.7-1.2c0.5-0.5,0.8-1.1,1.1-1.8
		C62.8,73.2,62.9,72.4,62.9,71.6z"/>
	<path d="M69.4,69c0-0.6,0-1.3-0.1-1.9c0-0.7-0.1-1.5-0.1-2.5h2v2.6h0.1c0.1-0.4,0.3-0.8,0.6-1.1c0.3-0.3,0.6-0.7,1-1
		c0.4-0.3,0.8-0.5,1.3-0.7c0.5-0.2,1.1-0.3,1.7-0.3c0.6,0,1.1,0.1,1.5,0.2l-0.4,2c-0.3-0.1-0.7-0.2-1.2-0.2c-0.8,0-1.4,0.2-2,0.4
		c-0.6,0.3-1,0.7-1.4,1.1c-0.4,0.4-0.6,0.9-0.8,1.5c-0.2,0.5-0.3,1-0.3,1.5v8h-2L69.4,69L69.4,69z"/>
	<path d="M88.8,70v-0.4c0-2.4-1.2-3.7-3.6-3.7c-1.7,0-3.1,0.6-4.3,1.7l-1.2-1.4c1.3-1.4,3.3-2.1,6-2.1c0.7,0,1.3,0.1,2,0.3
		c0.6,0.2,1.2,0.5,1.7,0.9c0.5,0.4,0.8,0.9,1.1,1.6c0.3,0.6,0.4,1.4,0.4,2.2v6.3c0,0.6,0,1.1,0.1,1.7c0.1,0.6,0.1,1.1,0.2,1.5h-1.9
		C89,78.4,89,78,89,77.6s-0.1-0.8-0.1-1.2h-0.1c-0.6,0.9-1.3,1.6-2.1,2.1c-0.8,0.4-1.8,0.6-2.9,0.6c-0.6,0-1.2-0.1-1.8-0.3
		c-0.6-0.2-1.1-0.4-1.6-0.8c-0.5-0.3-0.8-0.8-1.1-1.3c-0.3-0.5-0.4-1.1-0.4-1.8c0-1.2,0.3-2.1,0.9-2.7s1.3-1.2,2.2-1.5
		s1.9-0.5,2.9-0.6s2-0.1,2.8-0.1C87.8,70,88.8,70,88.8,70z M87.8,71.7c-0.5,0-1.1,0-1.9,0.1s-1.5,0.2-2.2,0.4
		c-0.7,0.2-1.3,0.5-1.8,0.9c-0.5,0.4-0.7,1-0.7,1.7c0,0.5,0.1,0.9,0.3,1.2c0.2,0.3,0.4,0.6,0.8,0.8s0.7,0.4,1.1,0.5
		c0.4,0.1,0.8,0.1,1.2,0.1c0.7,0,1.4-0.1,1.9-0.4s1-0.6,1.3-1c0.4-0.4,0.6-0.9,0.8-1.5c0.2-0.6,0.3-1.2,0.3-1.8v-1L87.8,71.7
		L87.8,71.7z"/>
	<path d="M103.2,66.4h-4.1v8.4c0,0.5,0.1,1,0.2,1.3s0.2,0.6,0.4,0.8c0.2,0.2,0.4,0.3,0.7,0.4s0.5,0.1,0.8,0.1c0.3,0,0.7-0.1,1.1-0.2
		s0.7-0.2,1-0.4l0.1,1.8c-0.8,0.3-1.7,0.5-2.7,0.5c-0.4,0-0.8-0.1-1.2-0.2c-0.4-0.1-0.8-0.3-1.1-0.6c-0.3-0.3-0.6-0.7-0.8-1.2
		c-0.2-0.5-0.3-1.1-0.3-1.9v-8.9h-3v-1.8h3v-4h2v4h4.1L103.2,66.4L103.2,66.4z"/>
	<path d="M120.7,71.6c0,1.1-0.2,2.1-0.6,3s-0.9,1.7-1.6,2.4c-0.7,0.7-1.5,1.2-2.4,1.6c-0.9,0.4-1.9,0.6-3.1,0.6
		c-1.1,0-2.1-0.2-3-0.6s-1.7-0.9-2.4-1.6c-0.7-0.7-1.2-1.5-1.6-2.4c-0.4-0.9-0.6-1.9-0.6-3s0.2-2.1,0.6-3c0.4-0.9,0.9-1.7,1.6-2.4
		c0.7-0.7,1.5-1.2,2.4-1.6c0.9-0.4,1.9-0.6,3-0.6c1.1,0,2.1,0.2,3.1,0.6c0.9,0.4,1.7,0.9,2.4,1.6s1.2,1.5,1.6,2.4
		C120.5,69.6,120.7,70.6,120.7,71.6z M118.5,71.6c0-0.8-0.1-1.5-0.4-2.2s-0.6-1.3-1.1-1.8c-0.5-0.5-1-0.9-1.7-1.2
		c-0.7-0.3-1.4-0.4-2.2-0.4s-1.6,0.2-2.2,0.4s-1.2,0.7-1.7,1.2c-0.5,0.5-0.8,1.1-1.1,1.8s-0.4,1.4-0.4,2.2s0.1,1.5,0.4,2.2
		s0.6,1.3,1.1,1.8c0.4,0.5,1,0.9,1.7,1.2c0.7,0.3,1.4,0.4,2.2,0.4s1.6-0.2,2.2-0.4s1.2-0.7,1.7-1.2c0.5-0.5,0.8-1.1,1.1-1.8
		C118.4,73.2,118.5,72.4,118.5,71.6z"/>
	<path d="M125,69c0-0.6,0-1.3-0.1-1.9s-0.1-1.5-0.1-2.5h2v2.6h0.1c0.1-0.4,0.3-0.8,0.6-1.1c0.3-0.3,0.6-0.7,1-1
		c0.4-0.3,0.8-0.5,1.3-0.7c0.5-0.2,1.1-0.3,1.7-0.3c0.6,0,1.1,0.1,1.5,0.2l-0.4,2c-0.3-0.1-0.6-0.2-1.1-0.2c-0.8,0-1.4,0.2-2,0.4
		c-0.6,0.3-1,0.7-1.4,1.1c-0.4,0.4-0.6,0.9-0.8,1.5c-0.2,0.5-0.3,1-0.3,1.5v8h-2L125,69L125,69z"/>
	<path d="M140.6,76.3l4.3-11.7h2.4l-7.1,17.9c-0.4,1.1-1,2-1.6,2.6c-0.7,0.7-1.6,1-2.8,1c-0.3,0-0.6,0-0.9,0c-0.3,0-0.6-0.1-0.9-0.2
		l0.2-1.9c0.4,0.2,0.9,0.3,1.5,0.3c0.7,0,1.3-0.2,1.7-0.7c0.4-0.4,0.8-1.1,1.1-1.9l1-2.7l-5.8-14.4h2.5L140.6,76.3z"/>
	<path d="M158.2,57.3h6.2c2.2,0,3.9,0.5,5.2,1.4s1.9,2.4,1.9,4.3s-0.6,3.4-1.9,4.3c-1.3,1-3,1.4-5.2,1.4h-4.1v10h-2.2V57.3z
		 M160.4,66.8h3.5c1,0,1.8-0.1,2.5-0.3c0.7-0.2,1.2-0.5,1.6-0.8s0.7-0.7,0.9-1.2c0.2-0.5,0.3-0.9,0.3-1.5c0-0.5-0.1-1-0.3-1.4
		c-0.2-0.5-0.5-0.8-0.9-1.2c-0.4-0.3-0.9-0.6-1.6-0.8c-0.7-0.2-1.5-0.3-2.5-0.3h-3.5V66.8z"/>
	<path d="M175.5,69c0-0.6,0-1.3-0.1-1.9s-0.1-1.5-0.1-2.5h2v2.6h0.1c0.1-0.4,0.3-0.8,0.6-1.1c0.3-0.3,0.6-0.7,1-1
		c0.4-0.3,0.8-0.5,1.3-0.7c0.5-0.2,1.1-0.3,1.7-0.3c0.6,0,1.1,0.1,1.5,0.2l-0.4,2c-0.3-0.1-0.6-0.2-1.1-0.2c-0.8,0-1.4,0.2-2,0.4
		c-0.6,0.3-1,0.7-1.4,1.1c-0.4,0.4-0.6,0.9-0.8,1.5c-0.2,0.5-0.3,1-0.3,1.5v8h-2L175.5,69L175.5,69z"/>
	<path d="M188.7,59.1c0,0.4-0.1,0.8-0.4,1.1c-0.3,0.3-0.6,0.4-1,0.4s-0.7-0.1-1-0.4c-0.3-0.3-0.5-0.6-0.5-1.1c0-0.4,0.1-0.8,0.5-1.1
		c0.3-0.3,0.6-0.4,1-0.4s0.7,0.1,1,0.4S188.7,58.6,188.7,59.1z M188.3,78.7h-2V64.5h2V78.7z"/>
	<path d="M195.4,64.5c0,0.4,0.1,0.8,0.1,1.1c0,0.4,0,0.8,0,1.1h0.1c0.2-0.4,0.5-0.7,0.9-1.1c0.3-0.3,0.7-0.6,1.1-0.8
		c0.4-0.2,0.9-0.4,1.4-0.6c0.5-0.1,0.9-0.2,1.4-0.2c1.8,0,3.2,0.5,4,1.4s1.3,2.3,1.3,4.1v9h-2v-7.9c0-1.6-0.3-2.8-0.8-3.6
		s-1.6-1.3-3-1.3c-0.1,0-0.4,0-0.9,0.1s-1,0.3-1.5,0.7c-0.5,0.4-1,0.9-1.4,1.6c-0.4,0.7-0.6,1.7-0.6,3v7.3h-2V67.7
		c0-0.4,0-0.9-0.1-1.5c0-0.6-0.1-1.1-0.1-1.7H195.4z"/>
	<path d="M221.2,67.9c-0.3-0.5-0.8-1-1.4-1.3c-0.6-0.4-1.3-0.6-2.1-0.6c-0.8,0-1.6,0.1-2.2,0.4c-0.7,0.3-1.2,0.7-1.7,1.2
		c-0.5,0.5-0.8,1.1-1.1,1.8c-0.2,0.7-0.4,1.4-0.4,2.3c0,0.8,0.1,1.6,0.4,2.3c0.2,0.7,0.6,1.3,1.1,1.8c0.5,0.5,1,0.9,1.7,1.2
		c0.7,0.3,1.4,0.4,2.2,0.4c0.8,0,1.5-0.2,2.1-0.6c0.6-0.4,1.1-0.8,1.4-1.3l1.6,1.2c-0.7,0.8-1.5,1.4-2.4,1.8
		c-0.9,0.4-1.8,0.6-2.8,0.6c-1.1,0-2.2-0.2-3.1-0.5s-1.7-0.9-2.4-1.6s-1.2-1.5-1.5-2.4s-0.5-1.9-0.5-3s0.2-2.1,0.5-3
		c0.3-0.9,0.8-1.7,1.5-2.4s1.4-1.2,2.4-1.6s2-0.6,3.1-0.5c1,0,1.9,0.2,2.8,0.6s1.7,1,2.4,1.8L221.2,67.9z"/>
	<path d="M227.2,72.2c0.1,0.7,0.2,1.4,0.5,2c0.3,0.6,0.7,1.2,1.1,1.6c0.5,0.4,1,0.8,1.6,1.1c0.6,0.3,1.3,0.4,2,0.4
		c1.1,0,2-0.2,2.8-0.7c0.8-0.5,1.4-1.1,1.8-1.7l1.6,1.3c-0.9,1.1-1.8,1.8-2.8,2.3c-1,0.5-2.1,0.7-3.3,0.7c-1.1,0-2-0.2-2.9-0.6
		c-0.9-0.4-1.7-0.9-2.3-1.6c-0.6-0.7-1.2-1.5-1.5-2.4s-0.6-1.9-0.6-3s0.2-2.1,0.6-3c0.4-0.9,0.9-1.7,1.5-2.4
		c0.6-0.7,1.4-1.2,2.3-1.6c0.9-0.4,1.8-0.6,2.8-0.6c1.1,0,2,0.2,2.9,0.6c0.9,0.4,1.6,0.9,2.1,1.5c0.6,0.6,1,1.4,1.3,2.2
		s0.4,1.8,0.4,2.8v0.9L227.2,72.2L227.2,72.2z M236.9,70.5c0-1.4-0.4-2.4-1.2-3.3c-0.8-0.8-1.9-1.3-3.4-1.3c-0.6,0-1.3,0.1-1.9,0.4
		s-1.1,0.6-1.6,1s-0.8,0.9-1.1,1.5c-0.3,0.6-0.4,1.1-0.4,1.7L236.9,70.5L236.9,70.5z"/>
	<path d="M250.5,66.4h-4.1v8.4c0,0.5,0,1,0.1,1.3s0.2,0.6,0.4,0.8c0.2,0.2,0.4,0.3,0.6,0.4s0.5,0.1,0.8,0.1c0.3,0,0.7-0.1,1.1-0.2
		s0.7-0.2,1-0.4l0.1,1.8c-0.8,0.3-1.6,0.5-2.7,0.5c-0.4,0-0.8-0.1-1.2-0.2c-0.4-0.1-0.8-0.3-1.1-0.6c-0.3-0.3-0.6-0.7-0.9-1.2
		c-0.2-0.5-0.3-1.1-0.3-1.9v-8.9h-3v-1.8h3v-4h2v4h4.1L250.5,66.4L250.5,66.4z"/>
	<path d="M268,71.6c0,1.1-0.2,2.1-0.6,3s-0.9,1.7-1.6,2.4c-0.7,0.7-1.5,1.2-2.4,1.6c-0.9,0.4-1.9,0.6-3,0.6c-1.1,0-2.1-0.2-3-0.6
		c-0.9-0.4-1.7-0.9-2.4-1.6c-0.7-0.7-1.2-1.5-1.6-2.4s-0.6-1.9-0.6-3s0.2-2.1,0.6-3s0.9-1.7,1.6-2.4c0.7-0.7,1.5-1.2,2.4-1.6
		c0.9-0.4,1.9-0.6,3-0.6c1.1,0,2.1,0.2,3,0.6c0.9,0.4,1.7,0.9,2.4,1.6s1.2,1.5,1.6,2.4C267.8,69.6,268,70.6,268,71.6z M265.8,71.6
		c0-0.8-0.1-1.5-0.4-2.2s-0.6-1.3-1.1-1.8c-0.5-0.5-1-0.9-1.7-1.2c-0.7-0.3-1.4-0.4-2.2-0.4c-0.8,0-1.6,0.2-2.2,0.4
		s-1.2,0.7-1.7,1.2c-0.5,0.5-0.8,1.1-1.1,1.8s-0.4,1.4-0.4,2.2s0.1,1.5,0.4,2.2s0.6,1.3,1.1,1.8c0.5,0.5,1,0.9,1.7,1.2
		c0.7,0.3,1.4,0.4,2.2,0.4c0.8,0,1.6-0.2,2.2-0.4s1.2-0.7,1.7-1.2c0.5-0.5,0.8-1.1,1.1-1.8C265.7,73.2,265.8,72.4,265.8,71.6z"/>
	<path d="M274,64.5c0,0.4,0.1,0.8,0.1,1.1c0,0.4,0,0.8,0,1.1h0.1c0.2-0.4,0.5-0.7,0.9-1.1c0.3-0.3,0.7-0.6,1.1-0.8
		c0.4-0.2,0.9-0.4,1.4-0.6c0.5-0.1,1-0.2,1.4-0.2c1.8,0,3.2,0.5,4,1.4s1.3,2.3,1.3,4.1v9h-2v-7.9c0-1.6-0.3-2.8-0.8-3.6
		c-0.5-0.8-1.6-1.3-3-1.3c-0.1,0-0.4,0-0.9,0.1s-1,0.3-1.5,0.7c-0.5,0.4-1,0.9-1.4,1.6c-0.4,0.7-0.6,1.7-0.6,3v7.3h-2V67.7
		c0-0.4,0-0.9,0-1.5s-0.1-1.1-0.1-1.7H274z"/>
	<polygon points="191.4,45.1 186,45.1 170.3,8.6 173.1,2.2 	"/>
	<polygon points="155.2,28.5 177.8,28.5 179.9,33.5 153,33.5 	"/>
	<polygon points="155.6,27.5 167.1,1 172.5,1 172.5,1 161.1,27.5 	"/>
	<polygon points="152.6,34.5 158,34.5 153.5,45.1 148,45.1 	"/>
</g>
</svg>
