<?xml version="1.0" encoding="utf-8"?>
<!-- Generator: Adobe Illustrator 25.2.3, SVG Export Plug-In . SVG Version: 6.00 Build 0)  -->
<svg version="1.1" id="Logo" xmlns="http://www.w3.org/2000/svg" xmlns:xlink="http://www.w3.org/1999/xlink" x="0px" y="0px"
	 viewBox="0 0 100 100" style="enable-background:new 0 0 100 100;" xml:space="preserve">
<style type="text/css">
	.st0{fill:#FFFFFF;}
</style>
<g>
	<path class="st0" d="M50,9.83c13.08,0,14.63,0.05,19.8,0.29c4.78,0.22,7.37,1.02,9.1,1.69c2.29,0.89,3.92,1.95,5.63,3.67
		c1.71,1.71,2.78,3.35,3.67,5.63c0.67,1.73,1.47,4.32,1.69,9.1c0.24,5.17,0.29,6.72,0.29,19.8s-0.05,14.63-0.29,19.8
		c-0.22,4.78-1.02,7.37-1.69,9.1c-0.89,2.29-1.95,3.92-3.67,5.63c-1.71,1.71-3.35,2.78-5.63,3.67c-1.73,0.67-4.32,1.47-9.1,1.69
		c-5.17,0.24-6.72,0.29-19.8,0.29s-14.63-0.05-19.8-0.29c-4.78-0.22-7.37-1.02-9.1-1.69c-2.29-0.89-3.92-1.95-5.63-3.67
		c-1.71-1.71-2.78-3.35-3.67-5.63c-0.67-1.73-1.47-4.32-1.69-9.1C9.88,64.63,9.83,63.08,9.83,50s0.05-14.63,0.29-19.8
		c0.22-4.78,1.02-7.37,1.69-9.1c0.89-2.29,1.95-3.92,3.67-5.63c1.71-1.71,3.35-2.78,5.63-3.67c1.73-0.67,4.32-1.47,9.1-1.69
		C35.37,9.88,36.92,9.83,50,9.83 M50,1C36.69,1,35.02,1.06,29.8,1.29c-5.22,0.24-8.78,1.07-11.89,2.28
		c-3.22,1.25-5.95,2.93-8.68,5.65c-2.72,2.72-4.4,5.46-5.65,8.68c-1.21,3.12-2.04,6.68-2.28,11.89C1.06,35.02,1,36.69,1,50
		c0,13.31,0.06,14.98,0.29,20.2c0.24,5.22,1.07,8.78,2.28,11.89c1.25,3.22,2.93,5.95,5.65,8.68c2.72,2.72,5.46,4.4,8.68,5.65
		c3.12,1.21,6.68,2.04,11.89,2.28C35.02,98.94,36.69,99,50,99s14.98-0.06,20.2-0.29c5.22-0.24,8.78-1.07,11.89-2.28
		c3.22-1.25,5.95-2.93,8.68-5.65c2.72-2.72,4.4-5.46,5.65-8.68c1.21-3.12,2.04-6.68,2.28-11.89C98.94,64.98,99,63.31,99,50
		s-0.06-14.98-0.29-20.2c-0.24-5.22-1.07-8.78-2.28-11.89c-1.25-3.22-2.93-5.95-5.65-8.68c-2.72-2.72-5.46-4.4-8.68-5.65
		c-3.12-1.21-6.68-2.04-11.89-2.28C64.98,1.06,63.31,1,50,1L50,1z"/>
	<path class="st0" d="M50,24.84C36.1,24.84,24.84,36.1,24.84,50S36.1,75.16,50,75.16S75.16,63.9,75.16,50S63.9,24.84,50,24.84z
		 M50,66.33c-9.02,0-16.33-7.31-16.33-16.33c0-9.02,7.31-16.33,16.33-16.33c9.02,0,16.33,7.31,16.33,16.33
		C66.33,59.02,59.02,66.33,50,66.33z"/>
	<circle class="st0" cx="76.16" cy="23.84" r="5.88"/>
</g>
</svg>
