<?xml version="1.0" encoding="utf-8"?>
<!-- Generator: Adobe Illustrator 24.1.2, SVG Export Plug-In . SVG Version: 6.00 Build 0)  -->
<svg version="1.1" id="Logo_FIXED" xmlns="http://www.w3.org/2000/svg" xmlns:xlink="http://www.w3.org/1999/xlink" x="0px" y="0px"
	 viewBox="0 0 100 100" style="enable-background:new 0 0 100 100;" xml:space="preserve">
<g>
	<path d="M37,78.5c26.4,0,40.9-21.9,40.9-40.9c0-0.6,0-1.2,0-1.9c2.8-2,5.2-4.6,7.2-7.4c-2.6,1.2-5.4,1.9-8.2,2.3
		c3-1.8,5.2-4.6,6.3-7.9c-2.8,1.7-5.9,2.8-9.1,3.5c-5.4-5.8-14.5-6.1-20.3-0.6c-3.7,3.5-5.3,8.7-4.2,13.7c-11.6-0.6-22.3-6-29.6-15
		c-3.8,6.6-1.9,15,4.4,19.2c-2.3-0.1-4.5-0.7-6.5-1.8c0,0.1,0,0.1,0,0.2c0,6.8,4.8,12.7,11.5,14.1c-2.1,0.6-4.3,0.7-6.5,0.2
		c1.9,5.9,7.3,9.9,13.4,10c-5.1,4-11.4,6.2-17.8,6.2c-1.1,0-2.3-0.1-3.4-0.2C21.6,76.2,29.2,78.5,37,78.5"/>
</g>
<g>
	<path d="M50,99.5C22.7,99.5,0.5,77.3,0.5,50S22.7,0.5,50,0.5S99.5,22.7,99.5,50S77.3,99.5,50,99.5z M50,4.5
		C24.9,4.5,4.5,24.9,4.5,50S24.9,95.5,50,95.5S95.5,75.1,95.5,50S75.1,4.5,50,4.5z"/>
</g>
</svg>
