<svg width="383" height="331" viewBox="0 0 383 331" fill="none" xmlns="http://www.w3.org/2000/svg">
<path d="M186.843 104.669C189.169 100.759 194.831 100.759 197.157 104.669L294.043 267.551C309.903 294.214 290.689 328 259.665 328H124.335C93.3109 328 74.0966 294.214 89.9567 267.551L186.843 104.669Z" stroke="#FFD1F8" stroke-width="6"/>
<path d="M210.622 57.7947C226.128 31.7266 263.872 31.7267 279.378 57.7948L347.043 171.551C362.903 198.214 343.689 232 312.665 232H117.55C112.897 232 110.014 226.932 112.394 222.933L210.622 57.7947Z" stroke="#FFD1F8" stroke-width="6"/>
<path d="M103.622 57.7947C119.128 31.7266 156.872 31.7267 172.378 57.7948L270.606 222.933C272.985 226.932 270.103 232 265.45 232H70.3346C39.3109 232 20.0966 198.214 35.9567 171.551L103.622 57.7947Z" stroke="#FFD1F8" stroke-width="6"/>
<path d="M186.804 99C189.113 95 194.887 95 197.196 99L268.21 222C270.52 226 267.633 231 263.014 231H120.986C116.367 231 113.48 226 115.79 222L186.804 99Z" stroke="#FFED48" stroke-width="15"/>
<path fill-rule="evenodd" clip-rule="evenodd" d="M187.1 187C185.94 187 185 186.112 185 185.016L185 147.984C185 146.888 185.94 146 187.1 146L196.9 146C198.06 146 199 146.888 199 147.984L199 185.016C199 186.112 198.06 187 196.9 187L187.1 187Z" fill="#FFED48"/>
<path d="M201 203C201 207.971 196.971 212 192 212C187.029 212 183 207.971 183 203C183 198.029 187.029 194 192 194C196.971 194 201 198.029 201 203Z" fill="#FFED48"/>
<path d="M119.961 264.875H131.258C133.82 264.875 135.984 265.266 137.75 266.047C139.531 266.828 140.883 267.984 141.805 269.516C142.742 271.031 143.211 272.898 143.211 275.117C143.211 276.68 142.891 278.109 142.25 279.406C141.625 280.688 140.719 281.781 139.531 282.688C138.359 283.578 136.953 284.242 135.312 284.68L134.047 285.172H123.43L123.383 281.492H131.398C133.023 281.492 134.375 281.211 135.453 280.648C136.531 280.07 137.344 279.297 137.891 278.328C138.438 277.359 138.711 276.289 138.711 275.117C138.711 273.805 138.453 272.656 137.938 271.672C137.422 270.688 136.609 269.93 135.5 269.398C134.406 268.852 132.992 268.578 131.258 268.578H124.484V299H119.961V264.875ZM139.906 299L131.609 283.531L136.32 283.508L144.734 298.719V299H139.906ZM147.734 286.602V286.062C147.734 284.234 148 282.539 148.531 280.977C149.062 279.398 149.828 278.031 150.828 276.875C151.828 275.703 153.039 274.797 154.461 274.156C155.883 273.5 157.477 273.172 159.242 273.172C161.023 273.172 162.625 273.5 164.047 274.156C165.484 274.797 166.703 275.703 167.703 276.875C168.719 278.031 169.492 279.398 170.023 280.977C170.555 282.539 170.82 284.234 170.82 286.062V286.602C170.82 288.43 170.555 290.125 170.023 291.688C169.492 293.25 168.719 294.617 167.703 295.789C166.703 296.945 165.492 297.852 164.07 298.508C162.664 299.148 161.07 299.469 159.289 299.469C157.508 299.469 155.906 299.148 154.484 298.508C153.062 297.852 151.844 296.945 150.828 295.789C149.828 294.617 149.062 293.25 148.531 291.688C148 290.125 147.734 288.43 147.734 286.602ZM152.07 286.062V286.602C152.07 287.867 152.219 289.062 152.516 290.188C152.812 291.297 153.258 292.281 153.852 293.141C154.461 294 155.219 294.68 156.125 295.18C157.031 295.664 158.086 295.906 159.289 295.906C160.477 295.906 161.516 295.664 162.406 295.18C163.312 294.68 164.062 294 164.656 293.141C165.25 292.281 165.695 291.297 165.992 290.188C166.305 289.062 166.461 287.867 166.461 286.602V286.062C166.461 284.812 166.305 283.633 165.992 282.523C165.695 281.398 165.242 280.406 164.633 279.547C164.039 278.672 163.289 277.984 162.383 277.484C161.492 276.984 160.445 276.734 159.242 276.734C158.055 276.734 157.008 276.984 156.102 277.484C155.211 277.984 154.461 278.672 153.852 279.547C153.258 280.406 152.812 281.398 152.516 282.523C152.219 283.633 152.07 284.812 152.07 286.062ZM176.234 263H180.594V294.078L180.219 299H176.234V263ZM197.727 286.109V286.602C197.727 288.445 197.508 290.156 197.07 291.734C196.633 293.297 195.992 294.656 195.148 295.812C194.305 296.969 193.273 297.867 192.055 298.508C190.836 299.148 189.438 299.469 187.859 299.469C186.25 299.469 184.836 299.195 183.617 298.648C182.414 298.086 181.398 297.281 180.57 296.234C179.742 295.188 179.078 293.922 178.578 292.438C178.094 290.953 177.758 289.281 177.57 287.422V285.266C177.758 283.391 178.094 281.711 178.578 280.227C179.078 278.742 179.742 277.477 180.57 276.43C181.398 275.367 182.414 274.562 183.617 274.016C184.82 273.453 186.219 273.172 187.812 273.172C189.406 273.172 190.82 273.484 192.055 274.109C193.289 274.719 194.32 275.594 195.148 276.734C195.992 277.875 196.633 279.242 197.07 280.836C197.508 282.414 197.727 284.172 197.727 286.109ZM193.367 286.602V286.109C193.367 284.844 193.25 283.656 193.016 282.547C192.781 281.422 192.406 280.438 191.891 279.594C191.375 278.734 190.695 278.062 189.852 277.578C189.008 277.078 187.969 276.828 186.734 276.828C185.641 276.828 184.688 277.016 183.875 277.391C183.078 277.766 182.398 278.273 181.836 278.914C181.273 279.539 180.812 280.258 180.453 281.07C180.109 281.867 179.852 282.695 179.68 283.555V289.203C179.93 290.297 180.336 291.352 180.898 292.367C181.477 293.367 182.242 294.188 183.195 294.828C184.164 295.469 185.359 295.789 186.781 295.789C187.953 295.789 188.953 295.555 189.781 295.086C190.625 294.602 191.305 293.938 191.82 293.094C192.352 292.25 192.742 291.273 192.992 290.164C193.242 289.055 193.367 287.867 193.367 286.602ZM202.062 286.602V286.062C202.062 284.234 202.328 282.539 202.859 280.977C203.391 279.398 204.156 278.031 205.156 276.875C206.156 275.703 207.367 274.797 208.789 274.156C210.211 273.5 211.805 273.172 213.57 273.172C215.352 273.172 216.953 273.5 218.375 274.156C219.812 274.797 221.031 275.703 222.031 276.875C223.047 278.031 223.82 279.398 224.352 280.977C224.883 282.539 225.148 284.234 225.148 286.062V286.602C225.148 288.43 224.883 290.125 224.352 291.688C223.82 293.25 223.047 294.617 222.031 295.789C221.031 296.945 219.82 297.852 218.398 298.508C216.992 299.148 215.398 299.469 213.617 299.469C211.836 299.469 210.234 299.148 208.812 298.508C207.391 297.852 206.172 296.945 205.156 295.789C204.156 294.617 203.391 293.25 202.859 291.688C202.328 290.125 202.062 288.43 202.062 286.602ZM206.398 286.062V286.602C206.398 287.867 206.547 289.062 206.844 290.188C207.141 291.297 207.586 292.281 208.18 293.141C208.789 294 209.547 294.68 210.453 295.18C211.359 295.664 212.414 295.906 213.617 295.906C214.805 295.906 215.844 295.664 216.734 295.18C217.641 294.68 218.391 294 218.984 293.141C219.578 292.281 220.023 291.297 220.32 290.188C220.633 289.062 220.789 287.867 220.789 286.602V286.062C220.789 284.812 220.633 283.633 220.32 282.523C220.023 281.398 219.57 280.406 218.961 279.547C218.367 278.672 217.617 277.984 216.711 277.484C215.82 276.984 214.773 276.734 213.57 276.734C212.383 276.734 211.336 276.984 210.43 277.484C209.539 277.984 208.789 278.672 208.18 279.547C207.586 280.406 207.141 281.398 206.844 282.523C206.547 283.633 206.398 284.812 206.398 286.062ZM241.203 273.641V276.969H227.492V273.641H241.203ZM232.133 267.477H236.469V292.719C236.469 293.578 236.602 294.227 236.867 294.664C237.133 295.102 237.477 295.391 237.898 295.531C238.32 295.672 238.773 295.742 239.258 295.742C239.617 295.742 239.992 295.711 240.383 295.648C240.789 295.57 241.094 295.508 241.297 295.461L241.32 299C240.977 299.109 240.523 299.211 239.961 299.305C239.414 299.414 238.75 299.469 237.969 299.469C236.906 299.469 235.93 299.258 235.039 298.836C234.148 298.414 233.438 297.711 232.906 296.727C232.391 295.727 232.133 294.383 232.133 292.695V267.477ZM261.055 292.273C261.055 291.648 260.914 291.07 260.633 290.539C260.367 289.992 259.812 289.5 258.969 289.062C258.141 288.609 256.891 288.219 255.219 287.891C253.812 287.594 252.539 287.242 251.398 286.836C250.273 286.43 249.312 285.938 248.516 285.359C247.734 284.781 247.133 284.102 246.711 283.32C246.289 282.539 246.078 281.625 246.078 280.578C246.078 279.578 246.297 278.633 246.734 277.742C247.188 276.852 247.82 276.062 248.633 275.375C249.461 274.688 250.453 274.148 251.609 273.758C252.766 273.367 254.055 273.172 255.477 273.172C257.508 273.172 259.242 273.531 260.68 274.25C262.117 274.969 263.219 275.93 263.984 277.133C264.75 278.32 265.133 279.641 265.133 281.094H260.797C260.797 280.391 260.586 279.711 260.164 279.055C259.758 278.383 259.156 277.828 258.359 277.391C257.578 276.953 256.617 276.734 255.477 276.734C254.273 276.734 253.297 276.922 252.547 277.297C251.812 277.656 251.273 278.117 250.93 278.68C250.602 279.242 250.438 279.836 250.438 280.461C250.438 280.93 250.516 281.352 250.672 281.727C250.844 282.086 251.141 282.422 251.562 282.734C251.984 283.031 252.578 283.312 253.344 283.578C254.109 283.844 255.086 284.109 256.273 284.375C258.352 284.844 260.062 285.406 261.406 286.062C262.75 286.719 263.75 287.523 264.406 288.477C265.062 289.43 265.391 290.586 265.391 291.945C265.391 293.055 265.156 294.07 264.688 294.992C264.234 295.914 263.57 296.711 262.695 297.383C261.836 298.039 260.805 298.555 259.602 298.93C258.414 299.289 257.078 299.469 255.594 299.469C253.359 299.469 251.469 299.07 249.922 298.273C248.375 297.477 247.203 296.445 246.406 295.18C245.609 293.914 245.211 292.578 245.211 291.172H249.57C249.633 292.359 249.977 293.305 250.602 294.008C251.227 294.695 251.992 295.188 252.898 295.484C253.805 295.766 254.703 295.906 255.594 295.906C256.781 295.906 257.773 295.75 258.57 295.438C259.383 295.125 260 294.695 260.422 294.148C260.844 293.602 261.055 292.977 261.055 292.273Z" fill="#FFD1F8"/>
<path d="M252.264 61.427L230.099 74.2239L228.403 71.2858L250.567 58.489L252.264 61.427ZM247.519 74.4777L234.564 81.9572L232.938 79.1409L249.409 69.6312L250.947 72.2952L247.519 74.4777ZM243.037 76.1722L242.406 74.9736C243.538 74.3334 244.675 73.9003 245.817 73.6742C246.968 73.4423 248.069 73.4156 249.119 73.5941C250.17 73.7726 251.122 74.1564 251.976 74.7457C252.847 75.3392 253.569 76.1333 254.143 77.1278C254.612 77.9397 254.922 78.7349 255.074 79.5133C255.236 80.2859 255.21 81.0382 254.997 81.7703C254.789 82.5125 254.375 83.2252 253.755 83.9082C253.144 84.5854 252.296 85.2374 251.21 85.8644L240.417 92.0958L238.782 89.2643L249.606 83.0153C250.469 82.5172 251.086 81.9919 251.457 81.4394C251.838 80.881 252.005 80.2908 251.957 79.6689C251.919 79.0412 251.695 78.3721 251.285 77.6617C250.881 76.9614 250.365 76.407 249.736 75.9984C249.114 75.6 248.424 75.3422 247.666 75.2249C246.914 75.1178 246.136 75.1409 245.331 75.2942C244.542 75.4518 243.778 75.7444 243.037 76.1722ZM263.34 93.7598L261.178 95.0078L256.037 86.1023L258.198 84.8543L263.34 93.7598ZM263.942 85.5569L265.568 88.3732L249.173 97.839C248.615 98.1613 248.243 98.4907 248.059 98.8273C247.874 99.1639 247.815 99.4956 247.882 99.8223C247.949 100.149 248.073 100.47 248.255 100.784C248.39 101.018 248.551 101.25 248.738 101.48C248.941 101.714 249.096 101.889 249.202 102.003L246.912 103.346C246.712 103.163 246.477 102.907 246.205 102.577C245.929 102.263 245.644 101.852 245.351 101.345C244.953 100.654 244.723 99.941 244.663 99.2044C244.603 98.4677 244.794 97.7422 245.234 97.028C245.69 96.3181 246.466 95.6468 247.562 95.014L263.942 85.5569ZM252.417 113.584C251.755 112.437 251.348 111.286 251.194 110.129C251.057 108.977 251.15 107.861 251.474 106.781C251.803 105.711 252.353 104.718 253.122 103.8C253.891 102.882 254.854 102.089 256.011 101.421L256.65 101.052C257.99 100.279 259.297 99.7882 260.571 99.5805C261.855 99.3669 263.058 99.3892 264.181 99.6473C265.305 99.9054 266.303 100.357 267.177 101.003C268.05 101.649 268.754 102.434 269.287 103.357C269.967 104.535 270.35 105.667 270.436 106.753C270.528 107.85 270.367 108.884 269.952 109.854C269.548 110.818 268.93 111.716 268.098 112.548C267.276 113.375 266.287 114.122 265.13 114.79L263.866 115.519L256.765 103.219L259.063 101.892L264.539 111.376L264.752 111.253C265.459 110.79 266.082 110.228 266.62 109.566C267.163 108.913 267.497 108.179 267.621 107.363C267.746 106.547 267.53 105.657 266.973 104.693C266.604 104.054 266.127 103.544 265.542 103.165C264.968 102.779 264.306 102.546 263.555 102.465C262.805 102.384 261.988 102.457 261.103 102.683C260.219 102.909 259.28 103.31 258.285 103.884L257.646 104.253C256.864 104.704 256.19 105.235 255.623 105.847C255.072 106.463 254.658 107.128 254.38 107.843C254.109 108.568 253.999 109.315 254.05 110.084C254.107 110.863 254.359 111.638 254.804 112.409C255.378 113.404 256.068 114.129 256.872 114.584C257.676 115.04 258.568 115.331 259.547 115.456L259.176 117.943C258.433 117.898 257.66 117.742 256.856 117.476C256.053 117.209 255.268 116.763 254.5 116.137C253.739 115.521 253.044 114.67 252.417 113.584ZM273.83 117.906L259.947 125.922L258.321 123.105L274.792 113.596L276.374 116.336L273.83 117.906ZM279.48 121.504L276.853 123.001C276.769 122.738 276.67 122.497 276.557 122.278C276.461 122.064 276.336 121.824 276.184 121.561C275.809 120.911 275.376 120.396 274.886 120.016C274.396 119.636 273.869 119.379 273.304 119.245C272.739 119.111 272.145 119.089 271.52 119.179C270.912 119.273 270.29 119.462 269.656 119.747L268.743 119.219C269.737 118.645 270.727 118.202 271.711 117.891C272.701 117.59 273.651 117.455 274.561 117.484C275.481 117.508 276.313 117.731 277.058 118.153C277.819 118.58 278.457 119.24 278.972 120.133C279.09 120.336 279.199 120.584 279.301 120.877C279.412 121.165 279.472 121.374 279.48 121.504ZM272.492 141.148L280.972 136.252C281.621 135.877 282.108 135.42 282.433 134.881C282.773 134.346 282.926 133.743 282.891 133.073C282.856 132.403 282.619 131.688 282.18 130.927C281.77 130.216 281.287 129.662 280.733 129.265C280.185 128.878 279.625 128.647 279.054 128.571C278.488 128.505 277.977 128.604 277.52 128.867L275.894 126.051C276.483 125.711 277.154 125.527 277.908 125.497C278.663 125.468 279.437 125.602 280.232 125.901C281.043 126.204 281.817 126.677 282.554 127.321C283.307 127.969 283.97 128.79 284.545 129.785C285.236 130.982 285.642 132.155 285.764 133.303C285.891 134.46 285.693 135.535 285.17 136.528C284.663 137.524 283.795 138.377 282.567 139.086L274.895 143.516C274.347 143.832 273.789 144.215 273.223 144.663C272.663 145.122 272.215 145.577 271.88 146.028L271.636 146.168L269.94 143.23C270.182 142.901 270.549 142.54 271.04 142.148C271.541 141.751 272.025 141.417 272.492 141.148ZM279.944 137.495L277.982 138.668L276.339 135.821C275.876 135.02 275.397 134.342 274.902 133.789C274.416 133.23 273.924 132.811 273.424 132.531C272.924 132.251 272.417 132.111 271.903 132.111C271.398 132.104 270.892 132.247 270.385 132.54C269.867 132.839 269.463 133.228 269.171 133.708C268.88 134.187 268.742 134.734 268.758 135.347C268.79 135.965 269.005 136.619 269.403 137.309C269.901 138.171 270.523 138.827 271.27 139.276C272.016 139.724 272.764 139.989 273.514 140.07C274.271 140.161 274.906 140.079 275.421 139.822L274.761 141.807C274.293 141.982 273.71 142.061 273.011 142.046C272.312 142.03 271.571 141.896 270.79 141.644C270.024 141.395 269.276 141.002 268.545 140.463C267.83 139.928 267.215 139.215 266.7 138.321C266.055 137.205 265.708 136.1 265.658 135.005C265.614 133.921 265.822 132.935 266.284 132.046C266.761 131.162 267.456 130.456 268.37 129.929C269.252 129.419 270.128 129.143 270.997 129.101C271.877 129.054 272.727 129.226 273.549 129.618C274.38 130.004 275.177 130.586 275.937 131.364C276.698 132.143 277.404 133.096 278.054 134.222L279.944 137.495ZM279.675 155.451C280.061 156.121 280.556 156.661 281.158 157.071C281.76 157.481 282.405 157.731 283.093 157.821C283.791 157.905 284.464 157.794 285.113 157.487L286.66 160.167C285.656 160.678 284.557 160.873 283.363 160.75C282.186 160.632 281.057 160.235 279.976 159.56C278.907 158.878 278.035 157.954 277.361 156.787C276.646 155.549 276.24 154.342 276.143 153.167C276.052 152.001 276.212 150.894 276.621 149.846C277.037 148.808 277.649 147.852 278.457 146.98C279.282 146.111 280.248 145.357 281.354 144.719L281.993 144.35C283.099 143.711 284.23 143.255 285.384 142.98C286.554 142.711 287.693 142.656 288.8 142.815C289.913 142.984 290.951 143.4 291.914 144.061C292.884 144.733 293.726 145.688 294.441 146.926C295.185 148.215 295.572 149.494 295.601 150.762C295.64 152.025 295.366 153.192 294.779 154.261C294.208 155.335 293.369 156.225 292.262 156.932L290.715 154.253C291.366 153.81 291.868 153.262 292.223 152.611C292.583 151.97 292.762 151.271 292.759 150.516C292.771 149.764 292.561 149.013 292.127 148.262C291.629 147.399 291.038 146.773 290.353 146.384C289.684 145.999 288.961 145.8 288.183 145.789C287.421 145.783 286.646 145.905 285.858 146.157C285.086 146.414 284.34 146.75 283.619 147.166L282.98 147.535C282.259 147.951 281.59 148.432 280.972 148.979C280.353 149.525 279.857 150.13 279.482 150.793C279.113 151.466 278.923 152.191 278.911 152.969C278.916 153.751 279.171 154.578 279.675 155.451ZM303.734 163.725L301.573 164.973L296.431 156.068L298.593 154.82L303.734 163.725ZM304.337 155.522L305.963 158.339L289.567 167.804C289.009 168.127 288.638 168.456 288.453 168.793C288.269 169.129 288.21 169.461 288.277 169.788C288.344 170.114 288.468 170.435 288.649 170.75C288.784 170.983 288.945 171.215 289.132 171.445C289.335 171.68 289.49 171.854 289.597 171.969L287.307 173.311C287.107 173.129 286.871 172.873 286.599 172.542C286.323 172.228 286.039 171.817 285.746 171.31C285.347 170.62 285.118 169.906 285.058 169.17C284.998 168.433 285.188 167.708 285.628 166.993C286.084 166.284 286.861 165.612 287.957 164.979L304.337 155.522ZM307.408 170.088L290.937 179.598L289.302 176.767L305.773 167.257L307.408 170.088ZM310.019 164.521C310.476 164.258 310.941 164.172 311.414 164.264C311.892 164.367 312.29 164.692 312.606 165.24C312.917 165.778 312.997 166.28 312.846 166.746C312.702 167.222 312.401 167.592 311.944 167.855C311.508 168.107 311.047 168.177 310.563 168.064C310.094 167.956 309.705 167.633 309.394 167.095C309.078 166.547 308.99 166.043 309.13 165.583C309.287 165.127 309.583 164.773 310.019 164.521ZM301.169 178.724L301.52 178.522C302.707 177.836 303.908 177.373 305.122 177.132C306.346 176.886 307.521 176.87 308.647 177.086C309.783 177.296 310.826 177.743 311.775 178.426C312.735 179.104 313.546 180.016 314.208 181.163C314.876 182.319 315.263 183.483 315.37 184.652C315.493 185.826 315.362 186.958 314.975 188.047C314.605 189.14 314.007 190.155 313.181 191.092C312.366 192.023 311.364 192.831 310.177 193.517L309.827 193.719C308.639 194.404 307.439 194.868 306.224 195.109C305.01 195.349 303.832 195.36 302.69 195.14C301.564 194.924 300.522 194.477 299.562 193.799C298.619 193.126 297.813 192.211 297.145 191.054C296.477 189.897 296.085 188.737 295.967 187.573C295.86 186.404 295.992 185.272 296.362 184.179C296.748 183.09 297.349 182.08 298.165 181.149C298.981 180.218 299.982 179.41 301.169 178.724ZM303.146 181.338L302.795 181.54C301.973 182.015 301.253 182.56 300.633 183.174C300.024 183.783 299.552 184.442 299.216 185.15C298.887 185.868 298.729 186.615 298.744 187.391C298.77 188.161 299.008 188.937 299.459 189.718C299.904 190.49 300.451 191.074 301.1 191.471C301.764 191.872 302.487 192.104 303.268 192.167C304.049 192.231 304.855 192.151 305.687 191.928C306.535 191.709 307.37 191.362 308.192 190.887L308.542 190.685C309.354 190.216 310.062 189.673 310.665 189.054C311.284 188.439 311.759 187.773 312.089 187.054C312.434 186.341 312.6 185.596 312.584 184.82C312.575 184.054 312.345 183.28 311.894 182.498C311.449 181.727 310.894 181.141 310.229 180.74C309.57 180.349 308.842 180.12 308.046 180.052C307.265 179.988 306.453 180.071 305.611 180.3C304.779 180.524 303.957 180.87 303.146 181.338ZM318.394 197.237L305.439 204.716L303.813 201.9L320.284 192.39L321.822 195.054L318.394 197.237ZM313.912 198.931L313.281 197.733C314.413 197.092 315.55 196.659 316.692 196.433C317.843 196.201 318.944 196.175 319.994 196.353C321.045 196.532 321.997 196.916 322.851 197.505C323.722 198.098 324.444 198.892 325.018 199.887C325.487 200.699 325.797 201.494 325.949 202.272C326.111 203.045 326.085 203.797 325.872 204.529C325.664 205.272 325.25 205.984 324.63 206.667C324.019 207.344 323.171 207.997 322.085 208.623L311.292 214.855L309.657 212.023L320.481 205.774C321.344 205.276 321.961 204.751 322.332 204.199C322.713 203.64 322.88 203.05 322.832 202.428C322.794 201.8 322.57 201.131 322.16 200.421C321.756 199.721 321.24 199.166 320.611 198.758C319.989 198.359 319.299 198.101 318.541 197.984C317.789 197.877 317.011 197.9 316.206 198.053C315.417 198.211 314.653 198.504 313.912 198.931Z" fill="#FFD1F8"/>
<path d="M74.9414 178.22L77.5969 179.753L69.9016 193.082L67.246 191.549L74.9414 178.22ZM56.9505 184.928L81.5781 199.147L79.6933 202.411L55.0657 188.193L56.9505 184.928ZM65.9935 169.265L90.6211 183.484L88.7461 186.732L64.1185 172.513L65.9935 169.265ZM95.9334 164.517L81.8605 156.392L83.6769 153.246L101.978 163.812L100.25 166.806L95.9334 164.517ZM92.4187 161.698L93.1368 160.376C94.3547 161.08 95.4075 161.86 96.2951 162.719C97.1781 163.559 97.8345 164.479 98.2645 165.479C98.6945 166.479 98.8601 167.56 98.7613 168.721C98.6511 169.875 98.2185 171.106 97.4633 172.414C96.9489 173.305 96.3473 174.048 95.6582 174.642C94.9757 175.225 94.2108 175.626 93.3635 175.843C92.5163 176.061 91.5739 176.065 90.5363 175.857C89.5053 175.638 88.3808 175.177 87.163 174.474L75.3566 167.657L77.1633 164.528L89.0035 171.364C89.8266 171.839 90.5609 172.143 91.2064 172.275C91.847 172.389 92.4164 172.38 92.9144 172.246C93.4077 172.095 93.8303 171.858 94.1822 171.535C94.5406 171.2 94.8435 170.819 95.0909 170.39C95.8591 169.06 96.2141 167.859 96.1559 166.788C96.0864 165.71 95.7152 164.752 95.0422 163.912C94.3645 163.055 93.49 162.317 92.4187 161.698ZM91.8643 147.463L106.529 155.93L104.713 159.076L86.4113 148.51L88.1301 145.533L91.8643 147.463ZM96.3139 150.889L95.4233 152.315C94.1781 151.581 93.1167 150.75 92.239 149.822C91.3501 148.888 90.69 147.883 90.2587 146.807C89.8274 145.731 89.6644 144.607 89.7698 143.435C89.8639 142.256 90.2625 141.058 90.9656 139.84C91.4604 138.983 92.0402 138.266 92.7049 137.687C93.3584 137.102 94.0975 136.694 94.9222 136.464C95.7469 136.233 96.6498 136.206 97.631 136.381C98.6121 136.557 99.6778 136.977 100.828 137.641L113.023 144.682L111.217 147.811L99.1736 140.858C98.2151 140.305 97.3539 140.025 96.59 140.02C95.8326 140.004 95.155 140.214 94.5571 140.651C93.9479 141.081 93.4155 141.691 92.9597 142.48C92.4259 143.405 92.1434 144.272 92.1124 145.081C92.0813 145.89 92.2459 146.646 92.6062 147.35C92.9664 148.055 93.4698 148.706 94.1164 149.305C94.7582 149.886 95.4907 150.414 96.3139 150.889ZM101.434 138.036L100.866 140.505C99.869 139.914 98.9993 139.194 98.2569 138.344C97.5211 137.483 96.9681 136.54 96.598 135.514C96.2344 134.478 96.1044 133.388 96.208 132.245C96.3003 131.095 96.6817 129.94 97.3523 128.778C97.9187 127.797 98.5497 127.004 99.2453 126.398C99.9473 125.781 100.719 125.369 101.559 125.163C102.395 124.939 103.309 124.933 104.299 125.144C105.29 125.355 106.361 125.793 107.511 126.457L119.537 133.4L117.721 136.546L105.661 129.583C104.634 128.991 103.745 128.695 102.992 128.697C102.235 128.68 101.574 128.9 101.01 129.357C100.441 129.795 99.9259 130.414 99.4636 131.215C99.0665 131.903 98.8333 132.58 98.7642 133.247C98.695 133.914 98.7648 134.548 98.9737 135.15C99.1713 135.745 99.4798 136.291 99.8991 136.789C100.325 137.275 100.837 137.691 101.434 138.036ZM125.373 116.066L115.951 110.626C115.23 110.21 114.519 109.995 113.82 109.982C113.116 109.951 112.451 110.139 111.826 110.545C111.201 110.951 110.644 111.577 110.156 112.422C109.7 113.212 109.435 113.983 109.361 114.737C109.293 115.48 109.381 116.147 109.625 116.739C109.876 117.32 110.256 117.757 110.763 118.05L108.956 121.179C108.302 120.802 107.752 120.258 107.304 119.549C106.857 118.84 106.556 118.019 106.402 117.088C106.243 116.14 106.268 115.132 106.478 114.065C106.683 112.981 107.105 111.886 107.743 110.781C108.511 109.45 109.414 108.408 110.451 107.654C111.494 106.888 112.639 106.481 113.884 106.433C115.125 106.368 116.427 106.729 117.792 107.517L126.317 112.438C126.926 112.79 127.603 113.114 128.35 113.409C129.103 113.694 129.789 113.872 130.409 113.944L130.68 114.1L128.795 117.365C128.343 117.314 127.792 117.162 127.142 116.907C126.481 116.646 125.891 116.365 125.373 116.066ZM117.718 110.925L119.937 112.161L118.111 115.324C117.596 116.214 117.211 117.052 116.954 117.835C116.685 118.613 116.555 119.32 116.564 119.956C116.572 120.592 116.719 121.158 117.004 121.654C117.278 122.143 117.697 122.55 118.261 122.875C118.836 123.207 119.436 123.381 120.059 123.395C120.682 123.409 121.285 123.238 121.866 122.882C122.443 122.508 122.952 121.938 123.395 121.171C123.948 120.212 124.234 119.25 124.251 118.282C124.268 117.315 124.107 116.448 123.768 115.681C123.436 114.902 123.003 114.337 122.47 113.984L124.747 113.517C125.175 113.869 125.576 114.386 125.949 115.068C126.322 115.749 126.605 116.536 126.796 117.429C126.983 118.303 127.02 119.242 126.907 120.244C126.79 121.229 126.444 122.217 125.871 123.21C125.155 124.45 124.285 125.398 123.259 126.054C122.241 126.699 121.176 127.046 120.064 127.096C118.948 127.128 117.883 126.852 116.868 126.266C115.887 125.699 115.135 125.01 114.612 124.196C114.078 123.377 113.771 122.463 113.691 121.455C113.601 120.44 113.718 119.351 114.045 118.186C114.372 117.021 114.896 115.813 115.619 114.561L117.718 110.925ZM120.563 98.3813L134.957 106.692L133.15 109.821L114.849 99.2546L116.558 96.2946L120.563 98.3813ZM124.683 101.752L123.88 103.026C122.635 102.292 121.587 101.438 120.735 100.465C119.872 99.4861 119.235 98.4416 118.823 97.3318C118.411 96.2221 118.252 95.0925 118.344 93.9429C118.432 92.7757 118.794 91.6395 119.432 90.5344C119.953 89.6323 120.546 88.892 121.211 88.3135C121.864 87.7286 122.602 87.3354 123.425 87.1339C124.255 86.9212 125.171 86.9236 126.173 87.1413C127.163 87.3524 128.262 87.8063 129.468 88.5029L141.461 95.4267L139.645 98.5729L127.618 91.6295C126.66 91.0761 125.812 90.7744 125.074 90.7242C124.325 90.6676 123.664 90.8351 123.092 91.2266C122.509 91.6116 121.99 92.1988 121.534 92.9881C121.085 93.7662 120.838 94.571 120.794 95.4026C120.756 96.2228 120.892 97.0302 121.2 97.8245C121.515 98.6076 121.969 99.3437 122.564 100.033C123.153 100.704 123.86 101.277 124.683 101.752ZM145.503 77.2148C145.052 76.9544 144.576 76.815 144.075 76.7967C143.57 76.7605 142.984 76.9557 142.316 77.3824C141.644 77.7912 140.842 78.5306 139.908 79.6004C139.108 80.4916 138.324 81.2641 137.555 81.918C136.793 82.5607 136.038 83.0491 135.289 83.3833C134.546 83.7062 133.805 83.8572 133.065 83.8361C132.325 83.815 131.578 83.5864 130.822 83.1502C130.101 82.7335 129.51 82.1818 129.049 81.495C128.595 80.7968 128.289 80.0114 128.132 79.1386C127.981 78.2544 128.005 77.3138 128.205 76.3166C128.405 75.3194 128.801 74.3077 129.393 73.2815C130.24 71.8156 131.222 70.7137 132.339 69.9757C133.457 69.2378 134.61 68.8432 135.797 68.7919C136.973 68.7342 138.085 69.008 139.134 69.6135L137.327 72.7427C136.82 72.4497 136.241 72.3188 135.592 72.3498C134.938 72.363 134.287 72.566 133.639 72.9589C132.998 73.3404 132.44 73.9427 131.964 74.7659C131.463 75.6342 131.191 76.4171 131.15 77.1146C131.103 77.7943 131.211 78.3754 131.474 78.8579C131.743 79.3291 132.103 79.6949 132.554 79.9553C132.892 80.1506 133.229 80.27 133.565 80.3135C133.896 80.3392 134.262 80.2649 134.664 80.0906C135.054 79.9099 135.504 79.5986 136.015 79.1567C136.525 78.7148 137.124 78.1207 137.811 77.3744C139.015 76.07 140.134 75.0696 141.167 74.3732C142.201 73.6769 143.198 73.2905 144.159 73.214C145.121 73.1376 146.092 73.3825 147.073 73.9489C147.873 74.4112 148.509 75.0035 148.979 75.7259C149.455 76.437 149.754 77.2483 149.874 78.1597C149.989 79.0534 149.932 80.0125 149.701 81.037C149.466 82.0437 149.039 83.0827 148.42 84.154C147.489 85.7665 146.414 86.9649 145.194 87.7493C143.975 88.5336 142.742 88.9496 141.497 88.9974C140.251 89.0451 139.121 88.776 138.106 88.1901L139.923 85.044C140.806 85.4937 141.631 85.6395 142.399 85.4814C143.156 85.3168 143.83 84.9693 144.422 84.439C145.002 83.9022 145.478 83.3124 145.849 82.6696C146.344 81.8126 146.645 81.0315 146.751 80.3262C146.864 79.6096 146.811 78.9851 146.592 78.4528C146.374 77.9205 146.01 77.5078 145.503 77.2148Z" fill="#FFD1F8"/>
</svg>
