<?xml version="1.0" encoding="utf-8"?>
<!-- Generator: Adobe Illustrator 24.1.2, SVG Export Plug-In . SVG Version: 6.00 Build 0)  -->
<svg version="1.1" id="Layer_1" xmlns="http://www.w3.org/2000/svg" xmlns:xlink="http://www.w3.org/1999/xlink" x="0px" y="0px"
	 viewBox="0 0 100 100" style="enable-background:new 0 0 100 100;" xml:space="preserve">
<g id="Logo_FIXED">
</g>
<path d="M73.3,38l-2.1-3.4L50,47.7L28.8,34.6L26.7,38L50,52.3L73.3,38z M18,73.4h64V26.6H18V73.4z M22,30.6h56v36.2L59.1,48.6
	l-2.8,2.9l18.7,18H25l18.7-18l-2.8-2.9L22,66.7V30.6z M50,0.5C22.7,0.5,0.5,22.7,0.5,50S22.7,99.5,50,99.5S99.5,77.3,99.5,50
	S77.3,0.5,50,0.5z M50,95.5C24.9,95.5,4.5,75.1,4.5,50C4.5,24.9,24.9,4.5,50,4.5S95.5,24.9,95.5,50C95.5,75.1,75.1,95.5,50,95.5z"/>
</svg>
