<?xml version="1.0" encoding="utf-8"?>
<!-- Generator: Adobe Illustrator 24.1.2, SVG Export Plug-In . SVG Version: 6.00 Build 0)  -->
<svg version="1.1" id="Layer_1" xmlns="http://www.w3.org/2000/svg" xmlns:xlink="http://www.w3.org/1999/xlink" x="0px" y="0px"
	 viewBox="0 0 194 54.9" style="enable-background:new 0 0 194 54.9;" xml:space="preserve">
<path d="M193.7,9.9c0-0.1,0-0.2-0.1-0.3h-0.4c-1,0-1.6,0-3.4,0c-0.6,0-1.5,0-1.7,0h-0.5c-0.1,0-0.1,0.3-0.1,0.3c0,0.1,0,0.2,0.1,0.3
	c0.7,0.1,1.4,0.3,2,0.6c0.4,0.6,0.6,1.3,0.6,2c0,0.3,0,0.6,0,1.4v4.1c0,0.3,0,0.6,0,0.8c-0.3-0.4-0.8-1.1-1.6-2l-6.5-7.2
	c-0.1-0.1-0.2-0.2-0.3-0.3c-0.2,0-0.4,0-0.6,0c-1.3,0-3.5-0.1-3.8-0.1c0,0.1-0.1,0.2-0.1,0.3s0,0.2,0.1,0.4c0.6,0.1,1.1,0.3,1.5,0.7
	s0.7,0.8,1,1.2c0.1,0.2,0.1,0.4,0.1,0.6c0,1-0.1,2.4-0.1,3.8v4c0,0.5,0,1-0.1,1.5c-0.6,0.5-1.3,0.9-2,1c0,0.1-0.1,0.2-0.1,0.4
	c0,0.1,0,0.3,0.1,0.3h0.4c0.4,0,1.3-0.1,1.9-0.1c0.9,0,1.4,0.1,2.2,0.1h1.2c0.1,0,0.1-0.3,0.1-0.3c0-0.1,0-0.2-0.1-0.3
	c-0.9-0.1-1.7-0.5-2.3-1.2c-0.2-0.8-0.3-1.6-0.3-2.4c0-0.6,0-1.5,0-2.6c0-1.5,0-2.9,0-3.6c0.1,0.1,0.3,0.3,0.4,0.4l9,10.1
	c0.1,0.1,0.4,0.1,0.5,0.1s0.2,0,0.2,0c0.1-0.3,0.2-0.6,0.2-0.9c0-0.6,0-1.1,0-1.4v-8.1c0-2.4,1.2-3.1,2.5-3.2
	C193.7,10.2,193.7,10,193.7,9.9 M171.3,16.1c0,3-0.8,5.5-1.9,6.5c-0.6,0.5-1.3,0.7-2.1,0.7c-1,0.1-2-0.4-2.6-1.3
	c-0.8-1.6-1.2-3.3-1.2-5.1c0-2.7,0.7-4.8,2-5.9c0.6-0.5,1.3-0.8,2-0.8c1.1,0,2,0.5,2.7,1.3C171,12.9,171.4,14.5,171.3,16.1
	 M174.9,16.5c0.1-2.5-1.2-4.9-3.5-6.1c-1.1-0.6-2.4-1-3.7-1c-2.7,0-5.1,1.4-6.6,3.6c-0.7,1.2-1.1,2.5-1.1,3.9c0,2.2,1,4.3,2.8,5.7
	c1.3,0.9,2.9,1.4,4.5,1.4c1,0,2-0.2,3-0.6s2-1,2.7-1.9C174.2,20.3,174.9,18.4,174.9,16.5 M157.7,14v-4c0-0.3-0.1-0.4-0.4-0.4
	c-0.6,0-3.7,0.1-6.8,0.1c-2.4,0-4.4,0-5.5,0h-1.4c-0.3,0-0.3,0.1-0.3,0.3v3.7c0.1,0.1,0.2,0.1,0.3,0.1s0.3,0,0.4,0
	c0.5-1.4,1.5-2.5,2.7-3.3c0.6-0.1,1.7-0.1,2-0.1c0,0.2,0,0.9,0.1,1.7c0,1.4,0,2,0,5.3c0,2.9,0,4.2-0.1,4.5c-0.1,0.5,0,1-2.3,1.1
	c0,0.1-0.1,0.3-0.1,0.4s0,0.2,0,0.3h0.8c0.7,0,2.4-0.1,3.1-0.1c0.6,0,2.4,0.1,3.6,0.1h0.5c0-0.1,0.1-0.3,0.1-0.4s0-0.2-0.1-0.4
	c-0.7,0.1-1.4-0.1-2-0.4c-0.1-0.5-0.2-1-0.2-1.5c0-2.1,0-2.9,0-4.3c0-1.8,0-3,0-6.4c0.3,0,0.9,0,1.5,0c0.9,0.2,1.8,0.7,2.3,1.5
	c0.4,0.7,0.8,1.4,1,2.1c0.1,0,0.2,0,0.3,0C157.5,14.1,157.6,14.1,157.7,14 M140.9,20.4c0-0.2,0-0.4,0-0.6c-0.1-0.1-0.2-0.1-0.3-0.1
	s-0.3,0-0.4,0c-0.5,1.2-1.2,2.2-2.1,3c-0.5,0.2-1,0.3-1.5,0.2H135c-0.4,0-0.9,0-1.3-0.1c-0.3-0.1-0.6-0.5-0.7-0.8
	c-0.2-0.4-0.3-0.8-0.2-1.2v-4.3h0.7c0.4,0,0.8,0.1,1.2,0.3c0.4,0.2,0.7,0.5,0.9,0.8c0.2,0.5,0.3,1.1,0.3,1.6
	c0.2,0.1,0.3,0.1,0.5,0.1c0.1,0,0.3,0,0.4-0.1c0-0.5-0.1-2-0.1-2.7c0-1,0.1-2.3,0.2-3c-0.1-0.1-0.3-0.1-0.4-0.1
	c-0.2,0-0.3,0-0.5,0.1c-0.1,0.3-0.3,1.1-0.3,1.1c-0.3,0.5-0.8,0.8-1.3,1c-0.4,0.1-0.8,0.1-1.1,0.2h-0.4V14c0-1.9,0-2.5,0.1-2.8
	c0-0.2,0.1-0.5,0.1-0.7c0.4,0,0.8-0.1,1.2,0c1.1,0,1.7,0,1.8,0c0.4,0,0.9,0.1,1.3,0.4c0.8,0.7,1.4,1.5,1.9,2.4c0.1,0,0.3,0,0.4,0
	c0.1,0,0.1,0,0.3-0.1c0-1.2-0.1-2.7-0.1-3.2c0-0.2-0.1-0.3-0.4-0.3c-0.2,0-0.9,0-1.7,0c-1.1,0-1.6,0-3.3,0c-0.9,0-2.8,0-3.6,0
	c-1.2,0-2.2,0-2.7,0h-0.7c-0.1,0.1-0.1,0.2-0.1,0.3s0,0.3,0.1,0.4c0.5,0,1,0.1,1.4,0.2c0.4,0.3,0.7,0.8,0.7,1.3
	c0,0.4,0.1,1.5,0.1,2.4v4c0,0.8,0,2,0,2.5c0,0.6-0.2,1.3-0.4,1.9c-0.6,0.2-1.2,0.3-1.8,0.3c-0.1,0.1-0.1,0.3-0.1,0.4s0,0.2,0.1,0.4
	h0.6c0.6,0,2.9-0.1,3.5-0.1c0.5,0,1.4,0,2.6,0c0.6,0,2.5,0.1,6.4,0.1c0.2,0,0.4,0,0.5,0c0.1-0.1,0.1-0.2,0.1-0.3
	C140.9,23.1,140.9,21.9,140.9,20.4 M124.4,21c-0.1-0.3-0.4-0.5-0.7-0.5h-0.1c-0.8,1.4-2.3,2.3-3.9,2.3c-1.7,0-3.3-1-3.9-2.6
	c-0.4-1.1-0.6-2.3-0.6-3.5s0.2-2.3,0.6-3.4c0.9-2.3,2.1-3,3.6-3c1.3,0.1,2.4,0.7,3.1,1.8c0.4,0.7,0.8,1.5,1,2.4
	c0.1,0,0.3,0.1,0.4,0.1c0.2,0,0.3-0.1,0.5-0.2c0-0.2-0.2-1.7-0.2-2.2c0-0.6,0.2-1.5,0.2-1.9c-0.2-0.1-0.5-0.2-0.8-0.2
	c-0.3,0.2-0.5,0.5-0.7,0.8c-1.2-1-2.8-1.5-4.3-1.4c-1.8-0.1-3.6,0.6-4.9,1.9c-1.4,1.5-2.2,3.5-2.1,5.5c-0.1,2.3,1,4.4,2.8,5.8
	c1.3,0.9,2.9,1.4,4.5,1.3c1.9,0.1,3.8-0.6,5-2.1C124.1,21.7,124.2,21.4,124.4,21 M109.2,9.9c0-0.1,0-0.2-0.1-0.3h-0.5
	c-1,0-1.6,0-3.4,0c-0.6,0-1.5,0-1.7,0H103c-0.1,0-0.1,0.3-0.1,0.3c0,0.1,0,0.2,0.1,0.3c0.7,0.1,1.4,0.3,2,0.6c0.4,0.6,0.6,1.3,0.6,2
	c0,0.3,0,0.6,0,1.4v4.1c0,0.3,0,0.6,0,0.8c-0.3-0.4-0.8-1.1-1.6-2L97.6,10c-0.1-0.1-0.2-0.2-0.3-0.3c-0.2,0-0.4,0-0.6,0
	c-1.3,0-3.5-0.1-3.8-0.1c0,0.1-0.1,0.2-0.1,0.3s0,0.2,0.1,0.4c0.6,0.1,1.1,0.3,1.5,0.7s0.7,0.8,1,1.2c0.1,0.2,0.1,0.4,0.1,0.6
	c0,1-0.1,2.4-0.1,3.8v4c0,0.5,0,1-0.1,1.5c-0.6,0.5-1.3,0.9-2,1c0,0.1-0.1,0.2-0.1,0.4c0,0.1,0,0.3,0.1,0.3h0.4
	c0.4,0,1.3-0.1,1.9-0.1c0.9,0,1.4,0.1,2.2,0.1H99c0.1,0,0.1-0.3,0.1-0.3c0-0.1,0-0.2-0.1-0.3c-0.9-0.1-1.7-0.5-2.3-1.2
	c-0.2-0.8-0.3-1.6-0.3-2.4c0-0.6,0-1.5,0-2.6c0-1.5,0-2.9,0-3.6c0.1,0.1,0.3,0.3,0.4,0.4l9,10.1c0.2,0.1,0.4,0.1,0.5,0.1
	s0.2,0,0.2,0c0.1-0.3,0.2-0.6,0.2-0.9c0-0.6,0-1.1,0-1.4v-8.1c0-2.4,1.2-3.1,2.5-3.2C109.2,10.2,109.2,10,109.2,9.9 M89.9,23.4
	c0-0.1,0-0.3-0.1-0.4c-0.5,0-1-0.1-1.4-0.2c-0.4-0.4-0.6-0.9-0.7-1.5c0-0.9,0-2.9,0-4.7v-4.8c0-0.4,0.1-0.8,0.4-1.1
	c0.5-0.3,1.1-0.5,1.7-0.5c0-0.1,0.1-0.2,0.1-0.4c0-0.1,0-0.2-0.1-0.3h-0.6c-0.8,0-2.7,0.1-3.4,0.1c-0.4,0-2.3-0.1-3.2-0.1h-0.4
	C82.1,9.7,82,9.9,82,10s0,0.2,0,0.4c0.5,0,1,0.1,1.5,0.3c0.4,0.4,0.7,1,0.6,1.7c0,0.4,0,1.2,0.1,3c0,1,0,2.3,0,3.5
	c0,0.6,0,1.8-0.1,2.5c0,0.4-0.1,0.8-0.3,1.2c-0.2,0.2-0.5,0.5-1.9,0.6c0,0.1-0.1,0.3-0.1,0.4c0,0.2,0,0.2,0,0.3h0.3
	c0.8,0,2.7-0.1,3.7-0.1c0.3,0,2.3,0.1,3,0.1h0.7C89.8,23.7,89.9,23.5,89.9,23.4 M74.2,13.2c0,1.2-0.7,2.3-1.8,2.8
	c-0.5,0.1-1.1,0.2-1.6,0.2c-0.2,0-0.5,0-0.7,0v-1.7v-3.6c0-0.2,0-0.3,0.1-0.4c0.3-0.1,0.5-0.1,0.8-0.1c1.5,0,2.2,0.1,2.7,1.1
	C74.1,12,74.2,12.6,74.2,13.2 M79.9,23.4c0-0.1,0-0.3-0.1-0.4c-0.4,0-0.9-0.1-1.3-0.3c-0.1-0.2-0.2-0.3-0.3-0.5
	c-0.2-0.8-0.5-1.5-0.8-2.2c-0.3-0.9-0.8-1.6-1.4-2.3c-0.5-0.3-1-0.5-1.5-0.6c-0.3-0.1-0.6-0.2-0.8-0.3c0.3-0.1,0.5-0.1,0.8-0.1
	c0.8,0,1.5-0.2,2.1-0.7c0.8-0.6,1.2-1.5,1.2-2.5c0-1.6-1-3-2.4-3.6c-0.8-0.2-1.6-0.2-2.3-0.2c-1.5,0-3.5,0.1-4.5,0.1
	c-0.3,0-2,0-2.7,0c-0.3,0-1,0-1.2,0c-0.1,0.1-0.1,0.2-0.1,0.4c0,0.1,0,0.2,0,0.4c0.3,0,0.9,0.1,1.2,0.2c0.4,0.3,0.7,0.6,0.8,1.1
	c0.1,1.7,0.2,3.3,0.1,5c0,2,0,4.3-0.1,5c0,0.5-0.3,1.1-0.8,1.3c-0.4,0.1-0.7,0.1-1.1,0.1c-0.1,0.1-0.1,0.3-0.1,0.4s0,0.2,0.1,0.3
	c0.3,0,3.3-0.1,3.9-0.1c1.2,0,2.3,0.1,3.4,0.1c0-0.1,0.1-0.2,0.1-0.3c0-0.1,0-0.3-0.1-0.4c-0.4,0-0.9-0.2-1.1-0.2
	c-0.5-0.3-0.9-0.8-0.8-1.4v-4.5c0.2,0,0.3,0,0.5,0c0.4,0,0.7,0.1,1,0.3c0.6,0.3,1.2,0.8,1.5,1.4c0.7,1.3,1.1,2.7,1.2,4.2
	c0.1,0.4,0.2,0.8,0.6,0.8c0.2,0,1.2,0.1,1.9,0.1h2.8C79.8,23.7,79.9,23.6,79.9,23.4 M58.7,13.3c0,0.9-0.3,1.8-1,2.4
	c-0.6,0.4-1.3,0.6-2,0.5c-0.3,0-0.6,0-0.8,0s-0.3,0-0.3-0.1v-5.7c0.4-0.1,0.8-0.1,1.1-0.1c1.3,0,2.1,0.3,2.5,1.1
	C58.6,12,58.7,12.7,58.7,13.3 M62.2,13.4c0-1.4-0.8-2.8-2.1-3.4c-1.1-0.4-2.3-0.5-3.5-0.4c-1.5,0-3.8,0.1-4.9,0.1
	c-0.7,0-1.8-0.1-2.4-0.1c-0.1,0.1-0.1,0.2-0.1,0.3s0,0.3,0.1,0.4c0.4,0.1,1,0.2,1.4,0.3c0.3,0.3,0.5,0.7,0.5,1.1
	c0.1,0.7,0.1,1.5,0.1,3c0,4.1,0,6.3-0.1,6.8c-0.1,0.6-0.5,1.2-1.1,1.4c-0.4,0.1-0.8,0.2-1.1,0.2c0,0.1,0,0.3,0,0.4s0,0.2,0.1,0.3
	c0.6,0,2.5-0.1,3.2-0.1c1.7,0,3.5,0.1,4.2,0.1H57c0-0.1,0.1-0.2,0.1-0.3c0-0.1,0-0.2,0-0.4c-0.7,0-1.3-0.2-1.8-0.6
	c-0.3-0.3-0.4-0.7-0.4-1.2L54.6,17c1.2,0.1,2.4,0.1,3.1,0.1c0.8,0,1.5-0.1,2.3-0.4C61.3,16.3,62.2,14.9,62.2,13.4"/>
<path d="M194,31.7c0-0.1-0.1-0.2-0.1-0.2c-0.8,0-1.9,0.1-2.3,0.1c-1,0-2.2-0.1-2.7-0.1c-0.1,0.1-0.1,0.1-0.1,0.2s0,0.2,0,0.2
	c0.6,0.1,1.4,0.3,1.5,0.5s0.2,0.5,0.2,0.8c0,0.2,0,0.5-0.1,0.7c-0.2,0.5-0.5,1.2-1.1,2.3c-0.9,1.8-1.5,2.9-1.8,3.4
	c-0.5-0.9-1.6-3.1-1.9-3.7l-1.1-2.4c-0.1-0.2-0.1-0.3-0.1-0.5s0-0.3,0.1-0.5c0.2-0.4,0.8-0.4,1.6-0.5c0-0.1,0.1-0.2,0.1-0.3
	c0-0.1-0.1-0.1-0.1-0.2h-0.4c-1.3,0-0.9,0.1-3.2,0.1c-1,0-2.1-0.1-2.3-0.1c-0.1,0.1-0.1,0.2-0.1,0.3c0,0.1,0,0.2,0.1,0.2
	c1.3,0.3,1.7,0.5,1.8,0.8l3.4,6.7c0.3,0.5,0.5,1,0.6,1.5c0.1,0.8,0.2,1.6,0.2,2.3c0.1,0.6-0.2,1.1-0.6,1.5c-0.5,0.1-1,0.2-1.6,0.3
	c-0.1,0.1-0.1,0.2-0.1,0.3s0,0.2,0.1,0.2c1,0,2,0,2.6,0c0.4,0,1,0,2.2,0c0.7,0,1.2,0,1.5,0c0.1-0.1,0.1-0.2,0.1-0.3s0-0.2-0.1-0.3
	c-0.6,0-1.2-0.2-1.7-0.4c-0.4-0.3-0.5-0.8-0.5-1.2l-0.2-2.9c0-0.2,0-0.3,0.1-0.5s0.1-0.4,0.2-0.5l3-6c0.3-0.5,0.7-1,1.2-1.3
	c0.4-0.2,0.8-0.3,1.3-0.4C194,31.8,194,31.8,194,31.7 M178.2,35.7v-3.8c0-0.3-0.1-0.4-0.4-0.4c-0.6,0-3.3,0.1-6.4,0.1
	c-2.4,0-4,0-5.1,0h-1.4c-0.3,0-0.3,0.1-0.3,0.3v3.5c0.1,0.1,0.1,0.1,0.2,0.1c0.1,0,0.2,0,0.2,0c0.8-1.7,1.1-2.6,2.5-3.3
	c0.6-0.1,2.6-0.1,2.9-0.1c0,0.2,0,0.9,0.1,1.7c0,1.4,0,2.2,0,5.5c0,2.9,0,4.4-0.1,4.7c-0.1,0.5,0,1-2.3,1.1c0,0.1-0.1,0.2-0.1,0.3
	s0,0.2,0,0.2h0.8c0.7,0,1.7-0.1,2.4-0.1c0.6,0,1.6,0.1,2.8,0.1h0.5c0-0.1,0.1-0.2,0.1-0.3s0-0.2-0.1-0.3c-0.7,0-1.4-0.1-2-0.4
	c-0.1-0.5-0.2-1-0.2-1.5c0-2.1,0-3.1,0-4.5c0-1.8,0-3.2,0-6.6c0.3,0,1.7,0,2.3,0c0.9,0.2,1.7,0.7,2.2,1.5c0.4,0.6,0.7,1.4,0.9,2.1
	c0.1,0,0.2,0,0.3,0C178.1,35.8,178.2,35.7,178.2,35.7 M162,45.3c0-0.1,0-0.2-0.1-0.3c-0.5,0-1-0.1-1.4-0.2c-0.4-0.4-0.6-0.9-0.7-1.5
	c0-0.9,0-3.1,0-4.9v-5c0-0.4,0.1-0.8,0.4-1.1c0.5-0.3,1.1-0.5,1.7-0.5c0-0.1,0.1-0.2,0.1-0.3c0-0.1,0-0.2-0.1-0.2h-0.6
	c-0.8,0-2,0.1-2.7,0.1c-0.4,0-1.6-0.1-2.4-0.1h-0.4c-0.1,0.1-0.1,0.2-0.1,0.3c0,0.1,0,0.2,0,0.3c0.5,0,1,0.1,1.5,0.3
	c0.4,0.4,0.7,1,0.6,1.7c0,0.4,0,1.4,0.1,3.2c0,1,0,2.3,0,3.4c0,0.6,0,2-0.1,2.7c0,0.4-0.1,0.8-0.3,1.2c-0.2,0.2-0.5,0.5-1.9,0.6
	c0,0.1-0.1,0.2-0.1,0.3c0,0.2,0,0.2,0,0.3h0.3c0.8,0,2-0.1,3-0.1c0.3,0,1.6,0.1,2.2,0.1h0.6C162,45.5,162,45.4,162,45.3 M152.4,41.7
	c0-1.5-0.8-2.9-2.2-3.4c-0.7-0.3-1.4-0.6-2.2-0.8c-1-0.3-1.9-0.6-2.8-1.1c-0.7-0.4-1.2-1.3-1.1-2.1c0.2-1.4,1.4-2.4,2.8-2.3
	c1.1,0,2.1,0.5,2.7,1.4c0.5,0.7,0.9,1.4,1.2,2.2c0.2,0.1,0.5,0,0.6-0.2c-0.1-0.6-0.1-1.2-0.2-1.8c0-0.5,0.1-1,0.2-1.5
	c-0.1-0.2-0.4-0.3-0.6-0.3c-0.3,0.2-0.5,0.4-0.8,0.7c-0.9-0.8-2.1-1.2-3.3-1.2c-2.1-0.2-3.9,1.4-4.1,3.5c0,0.1,0,0.1,0,0.2
	c0,0.8,0.3,1.5,0.7,2.1c0.5,0.6,1.1,1.1,1.9,1.4c0.6,0.2,3.1,1,3.5,1.1c1.6,0.6,2.1,1.1,2.1,2.5c0,0.7-0.3,1.4-0.9,2
	c-0.5,0.6-1.3,1-2.2,0.9c-1.2,0-2.4-0.5-3.3-1.4c-0.6-0.8-1-1.7-1.3-2.6c-0.1,0-0.2,0-0.3,0s-0.3,0-0.4,0.1c0,0.3,0.1,1.5,0.1,1.9
	c0,0.6-0.1,1.2-0.2,1.7c0.1,0.2,0.4,0.4,0.6,0.4c0.3-0.3,0.6-0.5,1-0.6c0.2,0,0.3,0.1,0.5,0.2c1,0.7,2.1,1,3.3,1
	C150.4,45.8,152.4,44.4,152.4,41.7 M135.1,35c0,1.3-0.9,2.5-2.1,2.9c-0.7,0.1-1.4,0.2-2,0.2c-0.2,0-0.9,0-1.2,0v-1.7v-3.7
	c0-0.3,0.1-0.4,0.1-0.5c0.4-0.1,0.9-0.1,1.4-0.1c1.8,0,2.7,0.2,3.3,1.1C134.9,33.7,135.1,34.4,135.1,35 M139.2,45.3
	c0-0.1,0-0.2-0.1-0.3c-0.4,0-0.9-0.1-1.3-0.3c-0.1-0.2-0.2-0.3-0.3-0.5c-0.2-0.8-0.5-1.6-0.8-2.4c-0.3-0.9-0.8-1.6-1.4-2.3
	c-0.4-0.3-0.9-0.5-1.4-0.6c-0.3-0.1-0.6-0.2-0.8-0.3c0.3-0.1,0.5-0.1,0.8-0.1c0.7,0,1.5-0.3,2.1-0.7c0.8-0.6,1.3-1.5,1.3-2.5
	c0-1.6-1-3-2.4-3.5c-0.8-0.2-1.6-0.2-2.3-0.2c-1.5,0-2.6,0.1-3.5,0.1c-0.3,0-1.2,0-1.9,0c-0.3,0-1,0-1.2,0c-0.1,0.1-0.1,0.2-0.1,0.3
	c0,0.1,0,0.2,0,0.3c0.3,0,0.9,0.1,1.2,0.2c0.4,0.3,0.7,0.6,0.8,1.1c0.1,0.6,0.1,2.4,0.1,5.1c0,2,0,4.5-0.1,5.2
	c0,0.6-0.3,1.1-0.8,1.3c-0.4,0.1-0.7,0.1-1.1,0.1c-0.1,0.1-0.1,0.2-0.1,0.3s0,0.2,0.1,0.2c0.3,0,2.5-0.1,3.1-0.1
	c1.3,0,1.6,0.1,2.7,0.1c0-0.1,0.1-0.1,0.1-0.2c0-0.1,0-0.2-0.1-0.3c-0.4,0-0.9-0.2-1.1-0.2c-0.5-0.3-0.9-0.8-0.8-1.4v-4.9
	c0.2,0,0.7,0,0.9,0c0.5,0,1.1,0.1,1.6,0.3c0.8,0.3,1.4,0.9,1.9,1.6c0.7,1.3,1.1,2.8,1.2,4.3c0.1,0.4,0.2,0.8,0.6,0.8
	c0.4,0,0.8,0.1,1.1,0.1h2C139.2,45.5,139.2,45.4,139.2,45.3 M122.8,42.4c0-0.2,0-0.4,0-0.6c-0.1-0.1-0.2-0.1-0.3-0.1
	c-0.1,0-0.2,0-0.3,0c-0.3,1.2-1,2.3-2,3c-0.5,0.2-1.1,0.3-1.7,0.2h-2.2c-0.4,0-0.9,0-1.3-0.1c-0.3-0.1-0.6-0.5-0.7-0.8
	c-0.2-0.4-0.3-0.9-0.2-1.3v-4.4h0.6c0.6,0,1.1,0.1,1.7,0.3c0.4,0.2,0.8,0.5,1.1,0.8c0.2,0.5,0.3,1.1,0.3,1.6
	c0.1,0.1,0.2,0.1,0.3,0.1c0.1,0,0.2,0,0.3-0.1c0-0.5-0.1-2-0.1-2.7c0-1,0.1-2.2,0.2-2.9c-0.1-0.1-0.2-0.1-0.3-0.1
	c-0.1,0-0.2,0-0.3,0.1c-0.1,0.3-0.2,1.1-0.3,1.2c-0.4,0.5-0.9,0.9-1.5,1c-0.5,0.1-1.1,0.2-1.6,0.2h-0.3v-1.9c0-1.9,0-2.6,0.1-3
	c0-0.2,0.1-0.5,0.1-0.7c0.2,0,0.7,0,1.6,0c1.1,0,2,0,2.1,0c0.4,0,0.9,0.1,1.2,0.4c0.8,0.6,1.4,1.5,1.7,2.4c0.1,0,0.2,0,0.2,0
	c0.1,0,0.1,0,0.3-0.1c0-1.2-0.1-2.5-0.1-3c0-0.2-0.1-0.3-0.5-0.3c-0.2,0-0.9,0-1.7,0c-1.1,0-1.6,0-3.3,0c-0.9,0-2.5,0-3.3,0
	c-1.2,0-1.4,0-1.9,0H110c-0.1,0.1-0.1,0.1-0.1,0.2s0,0.2,0.1,0.3c0.5,0,1,0.1,1.4,0.2c0.3,0.2,0.5,0.3,0.7,1.2
	c0,0.4,0.1,1.7,0.1,2.6v4c0,0.8,0,2.2,0,2.7c0,0.7-0.2,1.3-0.4,1.9c-0.6,0.2-1.2,0.3-1.8,0.3c-0.1,0.1-0.1,0.2-0.1,0.3
	s0,0.2,0.1,0.3h0.6c0.6,0,2.2-0.1,2.7-0.1s1.2,0,2.3,0c0.6,0,2.5,0.1,6.4,0.1c0.2,0,0.4,0,0.5,0c0.1-0.1,0.1-0.2,0.1-0.3
	C122.8,44.9,122.8,44,122.8,42.4 M108.4,31.7c0-0.1,0-0.2-0.1-0.2h-0.7c-0.5,0-1.2,0-1.5,0c-1.6,0-2.1-0.1-2.4-0.1h-0.3
	c0,0.1-0.1,0.2-0.1,0.3c0,0.1,0,0.1,0,0.2c0.5,0.1,0.9,0.1,1.3,0.3c0.3,0.3,0.5,0.8,0.5,1.2c-0.1,0.6-0.2,1.2-0.5,1.8l-3.1,7.7
	l-3.9-9.8c0-0.4,0.3-0.8,0.6-1.1c0.4-0.1,0.8-0.1,1.3-0.2c0-0.1,0.1-0.2,0.1-0.3c0-0.1,0-0.2-0.1-0.2H99c-0.6,0-1.5,0.1-2.6,0.1
	c-0.4,0-1.3,0-2.2,0h-0.8c-0.1,0.1-0.1,0.3,0,0.5c0.6,0.1,1.1,0.4,1.6,0.7c0.6,1.2,1.1,2.3,1.6,3.6l1.6,3.9c1.3,3.2,2.1,5.4,2.2,5.8
	c0.1,0.1,0,0.1,0.2,0.1s0.2,0,0.2-0.1l5-12.1c0.2-0.4,0.4-0.8,0.7-1.1c0.5-0.3,1-0.6,1.6-0.6C108.3,31.9,108.4,31.8,108.4,31.7
	 M91.3,45.3c0-0.1,0-0.2-0.1-0.3c-0.5,0-1-0.1-1.4-0.2c-0.4-0.4-0.6-0.9-0.7-1.5c0-0.9,0-3.1,0-4.9v-5c0-0.4,0.1-0.8,0.4-1.1
	c0.5-0.3,1.1-0.5,1.7-0.5c0-0.1,0.1-0.2,0.1-0.3c0-0.1,0-0.2-0.1-0.2h-0.6c-0.8,0-2,0.1-2.7,0.1c-0.4,0-1.6-0.1-2.4-0.1H85
	c-0.1,0.1-0.1,0.2-0.1,0.3c0,0.1,0,0.2,0,0.3c0.5,0,1,0.1,1.5,0.3c0.4,0.4,0.7,1,0.6,1.7c0,0.4,0,1.4,0.1,3.2c0,1,0,2.3,0,3.4
	c0,0.6,0,2-0.1,2.7c0,0.4-0.1,0.8-0.3,1.2c-0.2,0.2-0.5,0.5-1.9,0.6c0,0.1-0.1,0.2-0.1,0.3c0,0.2,0,0.2,0,0.3H85c0.8,0,2-0.1,3-0.1
	c0.3,0,1.6,0.1,2.2,0.1h0.6C91.3,45.5,91.3,45.4,91.3,45.3 M82.5,31.7c0-0.1,0-0.1-0.1-0.2H82c-1,0-1.4,0-3.2,0c-0.6,0-1.5,0-1.7,0
	h-0.5c-0.1,0-0.1,0.2-0.1,0.3c0,0.1,0,0.2,0.1,0.2c0.7,0.1,1.4,0.3,2,0.6c0.4,0.6,0.6,1.3,0.6,2c0,0.3,0,0.6,0,1.4v5.8
	c0,0.3,0,0.6,0,0.8c-0.3-0.4-0.9-1.1-1.7-2L70,31.9c-0.1-0.1-0.2-0.2-0.3-0.3c-0.2,0-0.3,0-0.5,0c-1.2,0-2.3-0.1-2.7-0.1
	c0,0.1-0.1,0.1-0.1,0.2s0,0.2,0,0.3c0.5,0.1,1.1,0.2,1.5,0.5c0.4,0.3,0.7,0.7,1,1.2c0.1,0.2,0.1,0.4,0.1,0.6c0,1-0.1,2.9-0.1,4.2
	v4.2c0,0.5,0,1-0.1,1.5c-0.6,0.5-1.3,0.9-2,1c0,0.1-0.1,0.2-0.1,0.2c0,0.1,0,0.2,0.1,0.2h0.4c0.4,0,1.3-0.1,1.9-0.1
	c0.9,0,1.2,0.1,2,0.1h1.2c0.1,0,0.1-0.2,0.1-0.3s0-0.1-0.1-0.2c-0.9-0.1-1.7-0.5-2.3-1.2c-0.2-0.8-0.3-1.6-0.3-2.5
	c0-0.6,0-1.6,0-2.8c0-1.5,0-3.7,0-4.4c0.1,0.1,0.3,0.4,0.4,0.5l9.3,10.8c0.1,0.1,0.1,0.1,0.2,0.1s0,0,0.1,0c0.1-0.3,0.1-0.6,0.1-0.9
	c0-0.6,0-1.2,0-1.4V35c0-2.4,1.2-3.1,2.5-3.2C82.4,31.9,82.5,31.8,82.5,31.7 M64.4,31.8c0-0.1,0-0.2-0.1-0.3h-0.6
	c-0.6,0-1.4,0-2.1,0c-0.8,0-1.7,0-2.2,0h-0.7c0,0.1-0.1,0.2-0.1,0.3c0,0.1,0,0.2,0.1,0.3c0.1,0,1.5,0,1.8,0.4s0.6,0.9,0.8,1.4
	c0.1,0.7,0.2,1.4,0.2,2.1c0,1.7,0,2.8,0,3.4c0,0.9-0.1,1.8-0.4,2.6c-0.5,1.7-2.1,2.7-3.8,2.5c-0.8,0-1.6-0.2-2.3-0.5
	c-1-0.5-1.7-1.4-1.9-2.5L53,35.6v-2.4c0-0.4,0.6-0.9,0.8-1.1c0.5-0.1,1-0.2,1.5-0.2c0.1-0.1,0.1-0.2,0.1-0.3c0-0.1-0.1-0.2-0.1-0.3
	h-0.7c-0.7,0-1.7,0-2.3,0c-0.9,0-1.7,0-2.2,0H49c-0.1,0.1-0.1,0.2-0.1,0.3c0,0.1,0,0.2,0.1,0.2c0.6,0.1,1,0.1,1.3,0.2
	c0.3,0.2,0.6,0.5,0.7,0.9c0,0.3,0.1,0.9,0.1,2.1v4.7c0,0.9,0,1.8,0.2,2.6c0.2,1,0.8,1.9,1.7,2.4c1.1,0.7,2.3,1,3.6,0.9
	c1.2,0,2.3-0.2,3.4-0.8c1-0.6,1.7-1.5,1.9-2.6c0.2-0.8,0.3-1.5,0.3-2.3v-3.7c0-0.7,0-1.6,0-1.9c0-0.8,0.2-1.5,0.6-2.1
	c0.5-0.1,1.1-0.2,1.6-0.3C64.4,31.9,64.4,31.9,64.4,31.8"/>
<path d="M16.6,12.1c-0.1,0-0.2,0.1-0.3,0.2l-0.6,1.3l0,0c0,0,0,0-0.1-0.1s-0.1-0.2-0.2-0.6l-0.2-0.4c-0.1-0.2-0.1-0.3-0.1-0.3
	c0-0.1-0.1-0.1-0.2-0.1l0,0l0,0H15c0.1,0,0.2,0,0.3,0s0.3,0,0.4,0h0.1l0,0l0,0c-0.1,0-0.2,0-0.2,0.1v0.1l0.4,0.9l0.3-0.7
	c0-0.1,0-0.1,0-0.2c0-0.1-0.1-0.1-0.2-0.1l0,0l0,0l0,0c0.1,0,0.1,0,0.3,0C16.4,12.2,16.5,12.2,16.6,12.1L16.6,12.1
	C16.7,12,16.7,12.1,16.6,12.1C16.7,12.1,16.7,12.1,16.6,12.1z"/>
<path d="M18.2,13.5c-0.5,0-0.7,0-0.8,0h-0.2c-0.1,0-0.2,0-0.4,0h-0.1l0,0l0,0c0.1,0,0.2,0,0.2,0c0-0.1,0.1-0.2,0-0.2
	c0-0.1,0-0.1,0-0.2c0-0.1,0-0.3,0-0.4v-0.2c0-0.2-0.1-0.2-0.3-0.2l0,0l0,0h0.1c0.1,0,0.2,0,0.5,0s0.5,0,0.6,0H18l0,0v0.3l0,0l0,0
	c-0.1-0.1-0.1-0.2-0.2-0.3h-0.1c0,0-0.1,0-0.2,0s-0.2,0-0.2,0s0,0,0,0.1c0,0,0,0.1,0,0.3v0.2h0.1c0.1,0,0.1,0,0.2,0s0.1-0.1,0.2-0.1
	v-0.1l0,0l0,0c0,0.1,0,0.2,0,0.3s0,0.2,0,0.3l0,0l0,0c0-0.1,0-0.2-0.1-0.3c-0.1,0-0.1,0-0.2,0h-0.1v0.4c0,0.1,0,0.1,0,0.2
	c0,0,0,0.1,0.1,0.1h0.1h0.2c0.1,0,0.1,0,0.2,0C18.1,13.6,18.2,13.5,18.2,13.5L18.2,13.5L18.2,13.5L18.2,13.5
	C18.3,13.5,18.3,13.5,18.2,13.5z"/>
<path d="M20.1,12.5C20.1,12.5,20,12.5,20.1,12.5c-0.1-0.1-0.1-0.2-0.2-0.2c-0.1-0.1-0.2-0.1-0.3-0.1h-0.1v0.7c0,0.1,0,0.2,0,0.5
	c0,0.2,0.1,0.2,0.3,0.2l0,0l0,0h-0.1c-0.1,0-0.3,0-0.4,0c0,0-0.3,0-0.4,0l0,0l0,0c0.2,0,0.3-0.1,0.3-0.1s0-0.2,0-0.5v-0.6
	c0-0.1,0-0.1,0-0.2c-0.1,0-0.2,0-0.2,0c-0.1,0.1-0.2,0.2-0.3,0.3l0,0l0,0v-0.4l0,0h0.2c0.1,0,0.3,0,0.5,0c0.4,0,0.6,0,0.7,0h0.1
	c0,0,0,0,0,0.1L20.1,12.5L20.1,12.5z"/>
<path d="M16.6,14.9L16.6,14.9c-0.1-0.1-0.1-0.2-0.2-0.2c-0.1-0.1-0.2-0.1-0.3-0.1H16v0.7c0,0.1,0,0.2,0,0.5c0,0.2,0.1,0.2,0.3,0.2
	l0,0l0,0h-0.1c-0.1,0-0.3,0-0.4,0c0,0-0.3,0-0.4,0l0,0l0,0c0.2,0,0.3-0.1,0.3-0.1s0-0.2,0-0.5v-0.6c0-0.1,0-0.1,0-0.2
	c-0.1,0-0.2,0-0.2,0c-0.1,0.1-0.2,0.2-0.3,0.3l0,0l0,0v-0.4l0,0h0.2c0.1,0,0.3,0,0.6,0c0.4,0,0.6,0,0.7,0h0.1c0,0,0,0,0,0.1
	L16.6,14.9L16.6,14.9z"/>
<path d="M18.3,15.9c-0.5,0-0.7,0-0.8,0h-0.2c-0.1,0-0.2,0-0.4,0h-0.1l0,0l0,0c0.1,0,0.2,0,0.2,0s0-0.1,0-0.2c0-0.1,0-0.1,0-0.2
	c0-0.1,0-0.3,0-0.4c0-0.1,0-0.2,0-0.2c0-0.2-0.1-0.2-0.3-0.2l0,0l0,0H17c0.1,0,0.2,0,0.5,0s0.5,0,0.6,0h0.2h0.1V15l0,0l0,0
	c-0.1-0.1-0.1-0.2-0.2-0.3h-0.1c0,0-0.1,0-0.2,0s-0.2,0-0.2,0s0,0,0,0.1c0,0,0,0.1,0,0.3v0.2l0,0c0.1,0,0.1,0,0.2,0s0.1-0.1,0.2-0.1
	v-0.1l0,0l0,0c0,0.1,0,0.2,0,0.3s0,0.2,0,0.3l0,0l0,0c0-0.1,0-0.2-0.1-0.3c-0.1,0-0.1,0-0.2,0h-0.1v0.4c0,0.1,0,0.1,0,0.2
	c0,0,0,0.1,0.1,0.1h0.1h0.2c0.1,0,0.1,0,0.2,0c0.1-0.1,0.2-0.2,0.2-0.3l0,0l0,0L18.3,15.9C18.4,15.9,18.4,15.9,18.3,15.9z"/>
<path d="M19.4,15.9c-0.1,0-0.2,0-0.4-0.1c0,0,0,0-0.1,0c0,0-0.1,0-0.1,0.1h-0.1c0,0,0-0.1,0-0.2v-0.2c0,0,0,0,0.1,0l0,0
	c0,0.1,0.1,0.2,0.1,0.3c0.1,0.1,0.2,0.2,0.3,0.2C19.3,16,19.4,16,19.4,15.9c0.1,0,0.1-0.1,0.1-0.2v-0.1c0-0.1-0.1-0.1-0.2-0.1
	s-0.3-0.1-0.4-0.1s-0.2-0.1-0.2-0.1c-0.1-0.1-0.1-0.2-0.1-0.3c0-0.2,0.2-0.4,0.4-0.4l0,0c0.1,0,0.3,0,0.4,0.1l0.1-0.1h0.1
	c0,0.1,0,0.1,0,0.2V15c0,0,0,0-0.1,0l0,0c0-0.1-0.1-0.2-0.1-0.3c-0.1-0.1-0.2-0.1-0.3-0.1c-0.1,0-0.3,0.1-0.3,0.2l0,0
	c0,0.1,0.1,0.2,0.2,0.2s0.1,0.1,0.2,0.1s0.2,0.1,0.2,0.1c0.2,0.1,0.3,0.2,0.2,0.4C19.9,15.8,19.6,16,19.4,15.9L19.4,15.9z"/>
<path d="M17.2,18.3c-0.5,0-0.7,0-0.8,0h-0.2c-0.1,0-0.2,0-0.4,0h-0.1l0,0l0,0c0.1,0,0.2,0,0.2,0c0-0.1,0.1-0.2,0-0.2
	c0-0.1,0-0.1,0-0.2s0-0.3,0-0.4V17c0-0.2-0.1-0.2-0.3-0.2l0,0l0,0h0.1c0.1,0,0.2,0,0.5,0c0.3,0,0.5,0,0.6,0H17l0,0v0.3l0,0l0,0
	c-0.1-0.1-0.1-0.2-0.2-0.3h-0.1c0,0-0.1,0-0.2,0s-0.2,0-0.2,0s0,0,0,0.1c0,0,0,0.1,0,0.3v0.2h0.1c0.1,0,0.1,0,0.2,0s0.1-0.1,0.2-0.1
	v-0.1l0,0l0,0c0,0.1,0,0.2,0,0.3c0,0.1,0,0.2,0,0.3l0,0l0,0c0-0.1,0-0.2-0.1-0.3c-0.1,0-0.1,0-0.2,0h-0.1v0.4c0,0.1,0,0.1,0,0.2
	c0,0,0,0.1,0.1,0.1h0.1h0.2c0.1,0,0.1,0,0.2,0c0.1-0.1,0.2-0.2,0.2-0.3l0,0l0,0L17.2,18.3C17.3,18.3,17.2,18.3,17.2,18.3z"/>
<path d="M19.4,16.9c-0.2,0-0.3,0.1-0.3,0.3V18c0,0,0,0.2,0,0.3c0,0,0,0-0.1,0l0,0l-1.1-1.1v0.2v0.4c0,0,0,0.1,0,0.2s0,0.1,0.1,0.2
	c0.1,0,0.1,0.1,0.2,0.1l0,0l0,0h-0.1c-0.1,0-0.2,0-0.3,0c-0.1,0-0.2,0-0.2,0l0,0l0,0l0,0c0.1,0,0.2,0,0.2-0.1s0-0.1,0-0.2v-0.5
	c0-0.1,0-0.1,0-0.2s0-0.1-0.1-0.2c0,0,0-0.1-0.1-0.1s-0.1-0.1-0.2-0.1l0,0l0,0l0,0c0,0,0.2,0,0.3,0H18l0,0l0.8,0.9
	c0.1,0.1,0.1,0.2,0.2,0.2v-0.6c0-0.1,0-0.1,0-0.2s0-0.1,0-0.2l-0.2-0.1l0,0l0,0l0,0c0.1,0,0.2,0,0.3,0
	C19.2,16.8,19.2,16.8,19.4,16.9L19.4,16.9C19.4,16.8,19.4,16.8,19.4,16.9C19.4,16.8,19.4,16.8,19.4,16.9z"/>
<path d="M24.4,12.1c-0.1,0-0.3,0.1-0.3,0.3v0.8c0,0,0,0.2,0,0.3c0,0,0,0-0.1,0l0,0l-1.1-1.1v0.2V13c0,0,0,0.1,0,0.2
	c0,0.1,0,0.1,0.1,0.2c0.1,0,0.1,0.1,0.2,0.1l0,0l0,0h-0.1c-0.1,0-0.2,0-0.3,0c-0.1,0-0.2,0-0.2,0l0,0l0,0l0,0c0.1,0,0.2,0,0.2-0.1
	s0-0.1,0-0.2v-0.5c0-0.1,0-0.1,0-0.2c0-0.1,0-0.1-0.1-0.2c0,0,0-0.1-0.1-0.1s-0.1-0.1-0.2-0.1l0,0l0,0l0,0c0,0,0.2,0,0.3,0H23l0,0
	l0.8,0.9c0.1,0.1,0.1,0.2,0.2,0.2v-0.6c0-0.1,0-0.1,0-0.2c0-0.1,0-0.1,0-0.2l-0.2-0.1l0,0l0,0l0,0c0.1,0,0.2,0,0.3,0
	C24.2,12.1,24.2,12,24.4,12.1L24.4,12.1L24.4,12.1L24.4,12.1z"/>
<path d="M25.9,13.4c-0.3,0.3-0.8,0.3-1.1,0l0,0c-0.2-0.2-0.2-0.4-0.2-0.6c0-0.2,0.1-0.4,0.2-0.6c0.1-0.1,0.3-0.2,0.5-0.2
	c0.1,0,0.3,0,0.4,0.1c0.2,0.1,0.4,0.4,0.4,0.7C26.2,13,26.1,13.2,25.9,13.4z M25.7,12.3c-0.1-0.1-0.2-0.2-0.3-0.2
	c-0.1,0-0.2,0.1-0.3,0.2C25,12.4,25,12.6,25,12.8s0,0.4,0.1,0.5s0.2,0.2,0.3,0.2c0.1,0,0.3-0.1,0.3-0.2c0.1-0.2,0.1-0.3,0.1-0.5
	C25.9,12.6,25.8,12.4,25.7,12.3L25.7,12.3z"/>
<path d="M28.1,12.1c-0.1,0-0.2,0.1-0.3,0.2l-0.6,1.3l0,0c0,0,0,0-0.1-0.1s-0.1-0.2-0.2-0.6l-0.2-0.4c-0.1-0.2-0.1-0.3-0.1-0.3
	c-0.1-0.1-0.1-0.1-0.2-0.1l0,0l0,0h0.1c0.1,0,0.2,0,0.3,0s0.3,0,0.4,0h0.1l0,0l0,0c-0.1,0-0.2,0-0.2,0.1v0.1l0.4,0.9l0.3-0.7
	c0-0.1,0-0.1,0-0.2c0-0.1-0.1-0.1-0.2-0.1l0,0l0,0l0,0c0.1,0,0.1,0,0.3,0C27.9,12.2,28,12.2,28.1,12.1L28.1,12.1L28.1,12.1
	L28.1,12.1z"/>
<path d="M23.9,14.9L23.9,14.9c-0.1-0.1-0.1-0.2-0.2-0.2c-0.1-0.1-0.2-0.1-0.3-0.1h-0.1v0.7c0,0.1,0,0.2,0,0.5c0,0.2,0.1,0.2,0.3,0.2
	l0,0l0,0h-0.1c-0.1,0-0.3,0-0.4,0c0,0-0.3,0-0.4,0l0,0l0,0c0.2,0,0.3-0.1,0.3-0.1s0-0.2,0-0.5v-0.6c0-0.1,0-0.1,0-0.2
	c-0.1,0-0.2,0-0.2,0c-0.1,0.1-0.2,0.2-0.3,0.3l0,0l0,0v-0.4l0,0h0.2c0.1,0,0.3,0,0.6,0c0.4,0,0.6,0,0.7,0h0.1c0,0,0,0,0,0.1
	L23.9,14.9L23.9,14.9z"/>
<path d="M25.7,15.9h-0.1c-0.1,0-0.2,0-0.3,0c-0.1,0-0.3,0-0.4,0l0,0l0,0c0.1,0,0.2,0,0.2-0.1s0-0.1,0-0.2c0-0.1-0.1-0.2-0.1-0.2l0,0
	h-0.5c-0.1,0.1-0.1,0.2-0.1,0.3v0.1c0,0,0,0.1,0.2,0.1l0,0l0,0l0,0c-0.1,0-0.1,0-0.3,0c-0.1,0-0.3,0-0.3,0l0,0l0,0
	c0.1,0,0.2,0,0.2-0.1c0.1-0.1,0.1-0.3,0.2-0.4c0.1-0.2,0.2-0.5,0.2-0.6c0.1-0.1,0.1-0.2,0.1-0.2c0-0.1,0.1-0.1,0.1-0.2h0.1l0,0
	c0,0,0,0,0,0.1c0.1,0.2,0.2,0.4,0.3,0.7c0.1,0.1,0.1,0.2,0.1,0.4c0,0.1,0.1,0.1,0.1,0.2C25.5,15.8,25.6,15.8,25.7,15.9
	C25.7,15.8,25.7,15.9,25.7,15.9L25.7,15.9z M24.7,14.7L24.7,14.7c0,0.1-0.1,0.2-0.1,0.2c-0.1,0.2-0.1,0.3-0.1,0.3H25
	C24.9,15.2,24.8,14.9,24.7,14.7L24.7,14.7z"/>
<path d="M28,15.9h-0.6h-0.2l0,0l0,0c0.1,0,0.1,0,0.1,0c0.1,0,0.1-0.1,0.1-0.2v-1.1l0,0l-0.3,0.7c0,0.1-0.1,0.2-0.1,0.2
	c-0.1,0.1-0.1,0.2-0.1,0.3l0,0l0,0c0-0.1-0.1-0.1-0.1-0.2l-0.5-1.1l0,0v0.3v0.7c0,0.2,0.1,0.3,0.3,0.3l0,0l0,0c0,0,0,0-0.1,0
	s-0.1,0-0.3,0c0,0-0.1,0-0.2,0h-0.1l0,0l0,0c0.1,0,0.2,0,0.2-0.1c0,0,0.1-0.1,0.1-0.2v-0.8c0-0.1,0-0.2-0.1-0.2s-0.1,0-0.2,0l0,0
	l0,0c0.1,0,0.2,0,0.3,0h0.4l0,0l0.5,1l0.1-0.2c0.1-0.2,0.2-0.4,0.3-0.7l0.1-0.2h0.6l0,0l0,0c-0.1,0-0.2,0-0.2,0.1c0,0,0,0.1,0,0.2
	v0.7c0,0.3,0.1,0.3,0.1,0.3C27.9,15.8,28,15.8,28,15.9C28,15.8,28,15.9,28,15.9L28,15.9z"/>
<path d="M23.8,17.3L23.8,17.3c-0.1-0.1-0.1-0.2-0.2-0.2C23.5,17,23.4,17,23.3,17h-0.1v0.7c0,0.1,0,0.2,0,0.5c0,0.2,0.1,0.2,0.3,0.2
	l0,0l0,0h-0.1c-0.1,0-0.3,0-0.4,0c0,0-0.3,0-0.4,0l0,0l0,0c0.2,0,0.3-0.1,0.3-0.1s0-0.2,0-0.5v-0.6c0-0.1,0-0.1,0-0.2
	c-0.1,0-0.2,0-0.2,0c-0.1,0.1-0.2,0.2-0.3,0.3l0,0l0,0v-0.4l0,0h0.2c0.1,0,0.3,0,0.6,0c0.4,0,0.6,0,0.7,0H24c0,0,0,0,0,0.1
	L23.8,17.3C23.9,17.2,23.9,17.2,23.8,17.3z"/>
<path d="M25.7,16.9c-0.1,0-0.2,0.1-0.3,0.2l-0.6,1.3l0,0c0,0,0,0-0.1-0.1s-0.1-0.2-0.2-0.6l-0.2-0.4c-0.1-0.2-0.1-0.3-0.1-0.3
	c-0.1-0.1-0.1-0.1-0.2-0.1l0,0l0,0h0.1c0.1,0,0.2,0,0.3,0s0.3,0,0.4,0h0.1l0,0l0,0c-0.1,0-0.2,0-0.2,0.1v0.1l0.4,0.9l0.3-0.7
	c0-0.1,0-0.1,0-0.2S25.3,17,25.2,17l0,0l0,0l0,0c0.1,0,0.1,0,0.3,0C25.5,17,25.6,17,25.7,16.9L25.7,16.9
	C25.7,16.8,25.7,16.8,25.7,16.9C25.7,16.8,25.7,16.8,25.7,16.9z"/>
<path d="M28.1,18.3h-0.6h-0.2l0,0l0,0c0.1,0,0.1,0,0.2,0s0.1-0.1,0.1-0.2v-0.9V17l0,0l-0.3,0.7c0,0.1-0.1,0.2-0.1,0.2
	C27,18,27,18.1,26.9,18.2l0,0l0,0c0-0.1-0.1-0.1-0.1-0.2l-0.5-1.1l0,0v0.3v0.7c0,0.2,0.1,0.3,0.3,0.3l0,0l0,0c0,0,0,0-0.1,0
	s-0.1,0-0.3,0c0,0-0.1,0-0.2,0h-0.1l0,0l0,0c0.1,0,0.2,0,0.2-0.1s0.1-0.2,0.1-0.2v-0.4v-0.4c0-0.1,0-0.2-0.1-0.2s-0.1,0-0.2,0l0,0
	l0,0c0.1,0,0.2,0,0.3,0h0.4l0,0l0.5,1l0.1-0.2c0.1-0.2,0.2-0.5,0.3-0.7c0-0.1,0.1-0.1,0.1-0.2h0.6l0,0l0,0c-0.1,0-0.2,0-0.2,0.1
	c0,0,0,0.1,0,0.2v0.7c0,0.3,0.1,0.3,0.1,0.3C27.9,18.2,28,18.2,28.1,18.3C28.1,18.2,28.1,18.2,28.1,18.3L28.1,18.3z"/>
<path d="M42.5,8.8l-0.1-0.7l-0.7,0.2c-1.7,0.5-3.4,0.8-5.1,0.8c-6,0-11.6-3.1-14.8-8.2L21.4,0l-0.5,0.8C17.7,6,12.1,9.1,6.1,9.1
	C4.4,9.1,2.6,8.8,1,8.3L0.3,8.1L0.2,8.8c-0.4,4.9-0.1,9.9,0.9,14.8c1.1,5.1,2.9,10,5.5,14.6c1.3,2.4,2.9,4.7,4.6,6.9
	c2.8,3.6,6.2,6.8,9.8,9.6l0.3,0.3l0.3-0.3c3.7-2.7,7-5.9,9.9-9.5c1.7-2.2,3.2-4.4,4.6-6.8c2.5-4.4,4.3-9.1,5.3-13.9l0.1-0.7
	C42.7,18.8,43,13.8,42.5,8.8z M30.3,12.7h0.9v1.7h-0.9V12.7z M30.3,17.1h0.9v1.7h-0.9V17.1z M21.6,10.9c0.3-0.4,0.9-0.7,1.5-0.6
	l1.7,0.2l2.2,0.3c0.6,0,1.3-0.1,1.9-0.3v9.1c-0.6,0.2-1.2,0.3-1.9,0.3l-2.1-0.3L23,19.4c-0.5,0-1,0.1-1.5,0.5v-9H21.6z M14.1,10.6
	c0.6,0.2,1.2,0.3,1.8,0.3l2.2-0.3l1.6-0.2c0.6-0.1,1.1,0.2,1.5,0.6v8.9c-0.4-0.3-0.9-0.5-1.5-0.5L18,19.6l-2.1,0.3
	c-1.5,0-1.8-0.4-1.9-0.4S14.1,11.2,14.1,10.6L14.1,10.6z M12.9,11.7c0.2,0,0.6-0.1,0.9-0.2v8.2c0.1,0.2,0.5,0.6,2.2,0.6l2.2-0.3
	l1.7-0.2c0.6-0.1,1.1,0.2,1.5,0.6l0,0h0.3l0,0c0.3-0.4,0.9-0.7,1.5-0.6l1.7,0.2l2.2,0.3c1.7,0,2.2-0.5,2.2-0.5v-8.3l0.8,0.2v9
	c-1,0.1-2.1,0.2-3.1,0.2c-1.4,0-2.8-0.1-4.2-0.3h-0.2v0.6c-0.3,0.1-0.7,0.2-1,0.2s-0.7-0.1-1-0.2v-0.6h-0.2
	c-1.4,0.2-2.8,0.3-4.2,0.3c-1.1,0-2.1-0.1-3.1-0.2L12.9,11.7z M11.7,12.7h0.8v1.7h-0.8V12.7z M11.7,17.1h0.8v1.7h-0.8V17.1z
	 M21.3,53.4c-3.5-2.6-6.6-5.7-9.3-9.1l0,0l9.3-9l9.3,9.1c0,0,0,0,0,0.1C27.9,47.8,24.8,50.8,21.3,53.4L21.3,53.4z M40.3,24.1
	c-1.1,4.7-2.8,9.3-5.1,13.5L21.4,24.2L7.5,37.5c-2.5-4.4-4.2-9.1-5.3-14h38.2L40.3,24.1z"/>
</svg>
