<?xml version="1.0" encoding="utf-8"?>
<!-- Generator: Adobe Illustrator 24.1.2, SVG Export Plug-In . SVG Version: 6.00 Build 0)  -->
<svg version="1.1" id="Logo_FIXED" xmlns="http://www.w3.org/2000/svg" xmlns:xlink="http://www.w3.org/1999/xlink" x="0px" y="0px"
	 viewBox="0 0 100 100" style="enable-background:new 0 0 100 100;" xml:space="preserve">
<g>
	<path d="M31.8,89.9c37,0,57.3-30.7,57.3-57.3c0-0.8,0-1.7,0-2.7c3.9-2.8,7.3-6.4,10.1-10.4c-3.6,1.7-7.6,2.7-11.5,3.2
		c4.2-2.5,7.3-6.4,8.8-11.1c-3.9,2.4-8.3,3.9-12.7,4.9c-7.6-8.1-20.3-8.5-28.4-0.8C50.1,20.7,47.9,28,49.4,35
		C33.2,34.1,18.2,26.6,8,14c-5.3,9.2-2.7,21,6.2,26.9c-3.2-0.1-6.3-1-9.1-2.5c0,0.1,0,0.1,0,0.3c0,9.5,6.7,17.8,16.1,19.7
		c-2.9,0.8-6,1-9.1,0.3c2.7,8.3,10.2,13.9,18.8,14c-7.1,5.6-16,8.7-24.9,8.7c-1.5,0-3.2-0.1-4.8-0.3C10.2,86.6,20.8,89.9,31.8,89.9"
		/>
</g>
</svg>
